<svg xmlns="http://www.w3.org/2000/svg" xmlns:xlink="http://www.w3.org/1999/xlink" width="500" zoomAndPan="magnify" viewBox="0 0 375 374.999991" height="500" preserveAspectRatio="xMidYMid meet" version="1.2"><defs><clipPath id="23eee35290"><path d="M 113.757812 27.699219 L 311.554688 27.699219 L 311.554688 222.410156 L 113.757812 222.410156 Z M 113.757812 27.699219 "/></clipPath><clipPath id="67a4e576d8"><path d="M 33.003906 188 L 91 188 L 91 200 L 33.003906 200 Z M 33.003906 188 "/></clipPath></defs><g id="c42c1c7b82"><path style=" stroke:none;fill-rule:evenodd;fill:#e9202a;fill-opacity:1;" d="M 212.371094 133.953125 C 211.203125 137.289062 208.707031 140.371094 205.253906 142.277344 C 198.898438 145.789062 191.707031 143.984375 189.207031 138.242188 C 186.703125 132.5 189.832031 124.996094 196.195312 121.480469 C 199.644531 119.574219 203.335938 119.234375 206.394531 120.238281 L 233.824219 109.035156 L 265.535156 96.074219 L 237.027344 116.386719 L 212.371094 133.953125 "/><g clip-rule="nonzero" clip-path="url(#23eee35290)"><path style=" stroke:none;fill-rule:nonzero;fill:#e9202a;fill-opacity:1;" d="M 198 208.390625 C 201.871094 208.390625 204.457031 211.527344 203.773438 215.398438 C 203.089844 219.269531 199.402344 222.410156 195.53125 222.410156 C 168.652344 222.410156 146.230469 211.507812 131.714844 193.890625 C 117.203125 176.269531 110.589844 151.933594 115.328125 125.054688 C 120.0625 98.175781 135.25 73.835938 155.972656 56.214844 C 176.695312 38.597656 202.953125 27.699219 229.832031 27.699219 C 256.710938 27.699219 279.132812 38.597656 293.648438 56.214844 C 308.160156 73.835938 314.773438 98.175781 310.039062 125.054688 C 309.355469 128.925781 305.664062 132.0625 301.792969 132.0625 C 297.921875 132.0625 295.335938 128.925781 296.019531 125.054688 C 300.074219 102.042969 294.414062 81.207031 281.988281 66.128906 C 269.566406 51.046875 250.375 41.714844 227.363281 41.714844 C 204.355469 41.714844 181.875 51.046875 164.136719 66.128906 C 146.398438 81.207031 133.398438 102.042969 129.34375 125.054688 C 125.289062 148.0625 130.949219 168.898438 143.375 183.976562 C 155.800781 199.0625 174.988281 208.390625 198 208.390625 "/></g><path style=" stroke:none;fill-rule:evenodd;fill:#e9202a;fill-opacity:1;" d="M 123.863281 39.667969 L 180.105469 39.667969 C 183.042969 39.667969 185.445312 42.070312 185.445312 45.003906 C 185.445312 47.9375 183.042969 50.339844 180.105469 50.339844 L 123.863281 50.339844 C 120.929688 50.339844 118.527344 47.9375 118.527344 45.003906 C 118.527344 42.070312 120.929688 39.667969 123.863281 39.667969 "/><path style=" stroke:none;fill-rule:evenodd;fill:#e9202a;fill-opacity:1;" d="M 80.347656 77.4375 L 136.589844 77.4375 C 139.527344 77.4375 141.925781 79.839844 141.925781 82.773438 C 141.925781 85.710938 139.527344 88.109375 136.589844 88.109375 L 80.347656 88.109375 C 77.410156 88.109375 75.007812 85.710938 75.007812 82.773438 C 75.007812 79.839844 77.410156 77.4375 80.347656 77.4375 "/><path style=" stroke:none;fill-rule:evenodd;fill:#e9202a;fill-opacity:1;" d="M 58.996094 127.113281 L 115.242188 127.113281 C 118.175781 127.113281 120.578125 129.511719 120.578125 132.449219 C 120.578125 135.382812 118.175781 137.785156 115.242188 137.785156 L 58.996094 137.785156 C 56.0625 137.785156 53.660156 135.382812 53.660156 132.449219 C 53.660156 129.511719 56.0625 127.113281 58.996094 127.113281 "/><path style=" stroke:none;fill-rule:evenodd;fill:#e9202a;fill-opacity:1;" d="M 104.550781 188.691406 L 134.949219 188.691406 C 137.882812 188.691406 140.285156 191.09375 140.285156 194.03125 C 140.285156 196.964844 137.882812 199.367188 134.949219 199.367188 L 104.550781 199.367188 C 101.617188 199.367188 99.214844 196.964844 99.214844 194.03125 C 99.214844 191.09375 101.617188 188.691406 104.550781 188.691406 "/><g clip-rule="nonzero" clip-path="url(#67a4e576d8)"><path style=" stroke:none;fill-rule:evenodd;fill:#e9202a;fill-opacity:1;" d="M 38.457031 188.691406 L 85.273438 188.691406 C 88.207031 188.691406 90.609375 191.09375 90.609375 194.03125 C 90.609375 196.964844 88.207031 199.367188 85.273438 199.367188 L 38.457031 199.367188 C 35.519531 199.367188 33.117188 196.964844 33.117188 194.03125 C 33.117188 191.09375 35.519531 188.691406 38.457031 188.691406 "/></g><path style=" stroke:none;fill-rule:evenodd;fill:#e9202a;fill-opacity:1;" d="M 86.472656 100.835938 L 104.566406 100.835938 C 107.503906 100.835938 109.90625 103.238281 109.90625 106.175781 C 109.90625 109.109375 107.503906 111.511719 104.566406 111.511719 L 86.472656 111.511719 C 83.535156 111.511719 81.132812 109.109375 81.132812 106.175781 C 81.132812 103.238281 83.535156 100.835938 86.472656 100.835938 "/><path style=" stroke:none;fill-rule:evenodd;fill:#e9202a;fill-opacity:1;" d="M 97.554688 156.261719 L 115.652344 156.261719 C 118.589844 156.261719 120.988281 158.660156 120.988281 161.597656 C 120.988281 164.53125 118.585938 166.933594 115.652344 166.933594 L 97.554688 166.933594 C 94.621094 166.933594 92.21875 164.53125 92.21875 161.597656 C 92.21875 158.660156 94.621094 156.261719 97.554688 156.261719 "/><path style=" stroke:none;fill-rule:evenodd;fill:#e9202a;fill-opacity:1;" d="M 87.292969 39.667969 L 105.390625 39.667969 C 108.324219 39.667969 110.726562 42.070312 110.726562 45.003906 C 110.726562 47.9375 108.324219 50.339844 105.390625 50.339844 L 87.292969 50.339844 C 84.359375 50.339844 81.957031 47.9375 81.957031 45.003906 C 81.957031 42.070312 84.355469 39.667969 87.292969 39.667969 "/><g style="fill:#000000;fill-opacity:1;"><g transform="translate(65.916443, 301.029652)"><path style="stroke:none" d="M 37.6875 -60.578125 C 39.394531 -60.578125 40.898438 -60.128906 42.203125 -59.234375 C 43.429688 -58.347656 44.21875 -57.148438 44.5625 -55.640625 L 56.0625 -6.15625 C 56.125 -5.8125 56.15625 -5.234375 56.15625 -4.421875 C 55.957031 -3.117188 55.410156 -2.054688 54.515625 -1.234375 C 53.554688 -0.410156 52.425781 0 51.125 0 C 48.875 0 47.539062 -0.921875 47.125 -2.765625 L 44.5625 -14.265625 L 17.96875 -14.265625 L 12.109375 -2.765625 C 11.222656 -0.921875 9.6875 0 7.5 0 C 6.195312 0 5.203125 -0.410156 4.515625 -1.234375 C 3.765625 -2.054688 3.492188 -3.117188 3.703125 -4.421875 C 3.703125 -5.035156 3.867188 -5.613281 4.203125 -6.15625 L 29.671875 -55.640625 C 31.378906 -58.929688 34.050781 -60.578125 37.6875 -60.578125 Z M 22.375 -22.6875 L 42.609375 -22.6875 L 36.25 -50.109375 Z M 22.375 -22.6875 "/></g></g><g style="fill:#000000;fill-opacity:1;"><g transform="translate(124.536173, 301.029652)"><path style="stroke:none" d="M 31 0.609375 C 14.71875 0.609375 7.875 -8.726562 10.46875 -27.40625 L 14.578125 -56.0625 C 14.710938 -57.289062 15.296875 -58.347656 16.328125 -59.234375 C 17.285156 -60.128906 18.378906 -60.578125 19.609375 -60.578125 C 20.835938 -60.578125 21.832031 -60.128906 22.59375 -59.234375 C 23.34375 -58.347656 23.648438 -57.289062 23.515625 -56.0625 L 19.609375 -28.34375 C 17.628906 -14.644531 21.835938 -7.796875 32.234375 -7.796875 C 42.503906 -7.796875 48.632812 -14.644531 50.625 -28.34375 L 54.515625 -56.0625 C 54.648438 -57.289062 55.234375 -58.347656 56.265625 -59.234375 C 57.285156 -60.128906 58.414062 -60.578125 59.65625 -60.578125 C 60.882812 -60.578125 61.875 -60.128906 62.625 -59.234375 C 63.3125 -58.347656 63.585938 -57.289062 63.453125 -56.0625 L 59.34375 -27.40625 C 56.738281 -8.726562 47.289062 0.609375 31 0.609375 Z M 31 0.609375 "/></g></g><g style="fill:#000000;fill-opacity:1;"><g transform="translate(186.749076, 301.029652)"><path style="stroke:none" d="M 29.78125 -52.15625 L 15.609375 -52.15625 C 14.441406 -52.15625 13.515625 -52.566406 12.828125 -53.390625 C 12.078125 -54.210938 11.804688 -55.203125 12.015625 -56.359375 C 12.148438 -57.523438 12.695312 -58.519531 13.65625 -59.34375 C 14.539062 -60.164062 15.566406 -60.578125 16.734375 -60.578125 L 54 -60.578125 C 55.164062 -60.578125 56.125 -60.164062 56.875 -59.34375 C 57.5625 -58.519531 57.835938 -57.523438 57.703125 -56.359375 C 57.492188 -55.203125 56.945312 -54.210938 56.0625 -53.390625 C 55.101562 -52.566406 54.039062 -52.15625 52.875 -52.15625 L 38.703125 -52.15625 L 32.03125 -4.515625 C 31.820312 -3.285156 31.238281 -2.222656 30.28125 -1.328125 C 29.257812 -0.441406 28.132812 0 26.90625 0 C 25.664062 0 24.671875 -0.441406 23.921875 -1.328125 C 23.171875 -2.222656 22.894531 -3.285156 23.09375 -4.515625 Z M 29.78125 -52.15625 "/></g></g><g style="fill:#000000;fill-opacity:1;"><g transform="translate(240.646385, 301.029652)"><path style="stroke:none" d="M 34.09375 0.609375 C 31.625 0.609375 29.226562 0.335938 26.90625 -0.203125 C 24.570312 -0.679688 22.175781 -1.675781 19.71875 -3.1875 C 17.1875 -4.625 15.0625 -6.503906 13.34375 -8.828125 C 11.632812 -11.085938 10.40625 -14.164062 9.65625 -18.0625 C 8.894531 -21.96875 8.859375 -26.421875 9.546875 -31.421875 C 10.296875 -36.691406 11.835938 -41.3125 14.171875 -45.28125 C 16.429688 -49.25 19.164062 -52.363281 22.375 -54.625 C 25.59375 -56.8125 28.914062 -58.453125 32.34375 -59.546875 C 35.757812 -60.578125 39.21875 -61.09375 42.71875 -61.09375 C 46.207031 -61.09375 49.523438 -60.578125 52.671875 -59.546875 C 55.816406 -58.453125 58.691406 -56.8125 61.296875 -54.625 C 63.898438 -52.363281 65.816406 -49.25 67.046875 -45.28125 C 68.210938 -41.3125 68.414062 -36.691406 67.65625 -31.421875 C 66.976562 -26.421875 65.710938 -21.96875 63.859375 -18.0625 C 61.941406 -14.164062 59.820312 -11.085938 57.5 -8.828125 C 55.164062 -6.503906 52.5625 -4.625 49.6875 -3.1875 C 46.75 -1.675781 44.046875 -0.679688 41.578125 -0.203125 C 39.046875 0.335938 36.550781 0.609375 34.09375 0.609375 Z M 35.21875 -7.796875 C 48.632812 -7.796875 56.4375 -15.566406 58.625 -31.109375 C 60.675781 -45.484375 54.992188 -52.671875 41.578125 -52.671875 C 28.160156 -52.671875 20.425781 -45.484375 18.375 -31.109375 C 16.1875 -15.566406 21.800781 -7.796875 35.21875 -7.796875 Z M 35.21875 -7.796875 "/></g></g><g style="fill:#000000;fill-opacity:1;"><g transform="translate(121.530149, 337.14491)"><path style="stroke:none" d="M 13.796875 -22.171875 C 14.421875 -22.171875 14.96875 -22.007812 15.4375 -21.6875 C 15.894531 -21.351562 16.1875 -20.914062 16.3125 -20.375 L 20.515625 -2.25 C 20.546875 -2.125 20.5625 -1.910156 20.5625 -1.609375 C 20.476562 -1.140625 20.273438 -0.753906 19.953125 -0.453125 C 19.597656 -0.148438 19.1875 0 18.71875 0 C 17.882812 0 17.394531 -0.335938 17.25 -1.015625 L 16.3125 -5.21875 L 6.578125 -5.21875 L 4.4375 -1.015625 C 4.113281 -0.335938 3.550781 0 2.75 0 C 2.269531 0 1.90625 -0.148438 1.65625 -0.453125 C 1.375 -0.753906 1.273438 -1.140625 1.359375 -1.609375 C 1.359375 -1.835938 1.421875 -2.050781 1.546875 -2.25 L 10.859375 -20.375 C 11.484375 -21.570312 12.460938 -22.171875 13.796875 -22.171875 Z M 8.1875 -8.3125 L 15.59375 -8.3125 L 13.265625 -18.34375 Z M 8.1875 -8.3125 "/></g></g><g style="fill:#000000;fill-opacity:1;"><g transform="translate(151.084726, 337.14491)"><path style="stroke:none" d="M 15.75 -22.171875 C 17.519531 -22.171875 19.019531 -21.554688 20.25 -20.328125 C 21.476562 -19.097656 21.914062 -17.296875 21.5625 -14.921875 C 21.363281 -13.441406 20.988281 -12.175781 20.4375 -11.125 C 19.882812 -10.070312 19.234375 -9.28125 18.484375 -8.75 C 17.710938 -8.195312 16.953125 -7.8125 16.203125 -7.59375 C 15.421875 -7.34375 14.617188 -7.21875 13.796875 -7.21875 L 6.53125 -7.21875 L 5.75 -1.65625 C 5.675781 -1.207031 5.460938 -0.816406 5.109375 -0.484375 C 4.734375 -0.160156 4.320312 0 3.875 0 C 3.414062 0 3.050781 -0.160156 2.78125 -0.484375 C 2.507812 -0.816406 2.410156 -1.207031 2.484375 -1.65625 L 5.109375 -20.515625 C 5.179688 -20.960938 5.394531 -21.351562 5.75 -21.6875 C 6.101562 -22.007812 6.503906 -22.171875 6.953125 -22.171875 Z M 8.1875 -19.09375 L 6.953125 -10.296875 L 14.046875 -10.296875 C 16.503906 -10.296875 17.945312 -11.835938 18.375 -14.921875 C 18.78125 -17.703125 17.753906 -19.09375 15.296875 -19.09375 Z M 8.1875 -19.09375 "/></g></g><g style="fill:#000000;fill-opacity:1;"><g transform="translate(179.813371, 337.14491)"><path style="stroke:none" d="M 15.75 -22.171875 C 17.519531 -22.171875 19.019531 -21.554688 20.25 -20.328125 C 21.476562 -19.097656 21.914062 -17.296875 21.5625 -14.921875 C 21.363281 -13.441406 20.988281 -12.175781 20.4375 -11.125 C 19.882812 -10.070312 19.234375 -9.28125 18.484375 -8.75 C 17.710938 -8.195312 16.953125 -7.8125 16.203125 -7.59375 C 15.421875 -7.34375 14.617188 -7.21875 13.796875 -7.21875 L 6.53125 -7.21875 L 5.75 -1.65625 C 5.675781 -1.207031 5.460938 -0.816406 5.109375 -0.484375 C 4.734375 -0.160156 4.320312 0 3.875 0 C 3.414062 0 3.050781 -0.160156 2.78125 -0.484375 C 2.507812 -0.816406 2.410156 -1.207031 2.484375 -1.65625 L 5.109375 -20.515625 C 5.179688 -20.960938 5.394531 -21.351562 5.75 -21.6875 C 6.101562 -22.007812 6.503906 -22.171875 6.953125 -22.171875 Z M 8.1875 -19.09375 L 6.953125 -10.296875 L 14.046875 -10.296875 C 16.503906 -10.296875 17.945312 -11.835938 18.375 -14.921875 C 18.78125 -17.703125 17.753906 -19.09375 15.296875 -19.09375 Z M 8.1875 -19.09375 "/></g></g><g style="fill:#000000;fill-opacity:1;"><g transform="translate(208.542015, 337.14491)"><path style="stroke:none" d="M 4.0625 0 C 3.601562 0 3.238281 -0.160156 2.96875 -0.484375 C 2.695312 -0.816406 2.597656 -1.207031 2.671875 -1.65625 L 5.296875 -20.515625 C 5.367188 -20.960938 5.582031 -21.351562 5.9375 -21.6875 C 6.289062 -22.007812 6.691406 -22.171875 7.140625 -22.171875 C 7.585938 -22.171875 7.960938 -22.007812 8.265625 -21.6875 C 8.546875 -21.351562 8.644531 -20.960938 8.5625 -20.515625 L 6.125 -3.078125 L 15.25 -3.078125 C 15.675781 -3.078125 16.03125 -2.925781 16.3125 -2.625 C 16.5625 -2.320312 16.648438 -1.960938 16.578125 -1.546875 C 16.523438 -1.117188 16.335938 -0.753906 16.015625 -0.453125 C 15.660156 -0.148438 15.269531 0 14.84375 0 Z M 4.0625 0 "/></g></g><g style="fill:#000000;fill-opacity:1;"><g transform="translate(234.567614, 337.14491)"><path style="stroke:none" d="M 11.265625 -1.65625 C 11.191406 -1.207031 10.984375 -0.816406 10.640625 -0.484375 C 10.265625 -0.160156 9.847656 0 9.390625 0 C 8.941406 0 8.582031 -0.160156 8.3125 -0.484375 C 8.03125 -0.816406 7.925781 -1.207031 8 -1.65625 L 8.828125 -7.484375 L 3.6875 -19.734375 C 3.601562 -20.003906 3.578125 -20.28125 3.609375 -20.5625 C 3.679688 -21.007812 3.894531 -21.394531 4.25 -21.71875 C 4.59375 -22.019531 4.992188 -22.171875 5.453125 -22.171875 C 6.023438 -22.171875 6.445312 -21.90625 6.71875 -21.375 L 11.015625 -11.390625 L 18.109375 -21.375 C 18.460938 -21.90625 18.941406 -22.171875 19.546875 -22.171875 C 20.015625 -22.171875 20.390625 -22.019531 20.671875 -21.71875 C 20.921875 -21.394531 21.007812 -21.007812 20.9375 -20.5625 C 20.90625 -20.300781 20.800781 -20.023438 20.625 -19.734375 L 12.09375 -7.484375 Z M 11.265625 -1.65625 "/></g></g></g></svg>