<svg xmlns="http://www.w3.org/2000/svg" xmlns:xlink="http://www.w3.org/1999/xlink" width="500" zoomAndPan="magnify" viewBox="0 0 375 374.999991" height="500" preserveAspectRatio="xMidYMid meet" version="1.2"><defs><clipPath id="3b43d41bed"><path d="M 71 18 L 305 18 L 305 243.863281 L 71 243.863281 Z M 71 18 "/></clipPath></defs><g id="8f311707e7"><g clip-rule="nonzero" clip-path="url(#3b43d41bed)"><path style=" stroke:none;fill-rule:nonzero;fill:#fa000c;fill-opacity:1;" d="M 304.460938 77.265625 C 303.773438 74.699219 302.128906 72.554688 299.824219 71.222656 L 212.007812 20.519531 C 207.734375 18.054688 202.761719 17.394531 197.992188 18.675781 L 150.976562 31.296875 C 146.21875 32.574219 142.242188 35.628906 139.777344 39.898438 L 128.640625 59.1875 L 76.414062 59.1875 C 73.632812 59.1875 71.449219 61.425781 71.449219 64.15625 C 71.449219 66.886719 73.632812 69.125 76.414062 69.125 L 122.90625 69.125 L 117.175781 79.050781 L 94.582031 79.050781 C 91.835938 79.050781 89.613281 81.273438 89.613281 84.015625 C 89.613281 86.761719 91.835938 88.984375 94.582031 88.984375 L 111.4375 88.984375 L 72.394531 156.605469 C 69.652344 161.359375 71.285156 167.460938 76.039062 170.207031 L 102.277344 185.359375 L 95.6875 185.359375 C 92.957031 185.359375 90.722656 187.59375 90.722656 190.324219 C 90.722656 193.109375 92.957031 195.292969 95.6875 195.292969 L 119.484375 195.292969 L 136.714844 205.242188 L 119.152344 205.242188 C 116.40625 205.242188 114.183594 207.464844 114.183594 210.207031 C 114.183594 212.953125 116.40625 215.175781 119.152344 215.175781 L 153.921875 215.175781 L 201.023438 242.371094 C 202.582031 243.265625 204.289062 243.695312 205.972656 243.695312 C 209.421875 243.695312 212.777344 241.902344 214.613281 238.71875 L 303.464844 84.824219 C 304.796875 82.519531 305.152344 79.835938 304.460938 77.265625 Z M 205.980469 233.757812 L 173.804688 215.175781 L 191.449219 215.175781 C 194.191406 215.175781 196.414062 212.953125 196.414062 210.207031 C 196.414062 207.464844 194.191406 205.242188 191.449219 205.242188 L 156.605469 205.242188 L 81 161.574219 L 122.910156 88.984375 L 133.441406 88.984375 C 136.183594 88.984375 138.410156 86.761719 138.410156 84.015625 C 138.410156 81.273438 136.183594 79.050781 133.441406 79.050781 L 128.648438 79.050781 L 148.382812 44.867188 C 148.492188 44.679688 148.632812 44.527344 148.753906 44.351562 L 173.921875 58.890625 C 176.011719 60.082031 178.246094 60.679688 180.480469 60.679688 C 185.050781 60.679688 189.472656 58.296875 191.90625 54.074219 L 206.4375 28.875 C 206.632812 28.96875 206.847656 29.011719 207.039062 29.125 L 294.863281 79.851562 Z M 142.039062 85.65625 C 142.453125 85.894531 142.59375 86.429688 142.355469 86.84375 L 137.386719 95.453125 C 137.226562 95.726562 136.9375 95.882812 136.636719 95.882812 C 136.488281 95.882812 136.335938 95.84375 136.203125 95.765625 C 135.785156 95.527344 135.644531 94.996094 135.882812 94.578125 L 140.851562 85.972656 C 141.089844 85.558594 141.621094 85.425781 142.039062 85.65625 Z M 129.617188 107.164062 C 130.035156 107.402344 130.175781 107.9375 129.9375 108.355469 L 124.96875 116.960938 C 124.808594 117.234375 124.519531 117.390625 124.21875 117.390625 C 124.070312 117.390625 123.917969 117.351562 123.785156 117.273438 C 123.367188 117.039062 123.226562 116.503906 123.464844 116.085938 L 128.433594 107.480469 C 128.671875 107.070312 129.207031 106.933594 129.617188 107.164062 Z M 117.199219 128.675781 C 117.617188 128.914062 117.757812 129.445312 117.519531 129.863281 L 112.550781 138.46875 C 112.390625 138.746094 112.101562 138.898438 111.800781 138.898438 C 111.652344 138.898438 111.5 138.859375 111.363281 138.785156 C 110.949219 138.546875 110.808594 138.011719 111.046875 137.59375 L 116.015625 128.992188 C 116.253906 128.578125 116.789062 128.441406 117.199219 128.675781 Z M 154.773438 65.335938 L 149.804688 73.941406 C 149.644531 74.21875 149.355469 74.375 149.054688 74.375 C 148.90625 74.375 148.757812 74.335938 148.621094 74.257812 C 148.203125 74.019531 148.0625 73.484375 148.300781 73.070312 L 153.269531 64.464844 C 153.503906 64.050781 154.046875 63.914062 154.457031 64.148438 C 154.871094 64.386719 155.011719 64.917969 154.773438 65.335938 Z M 104.78125 150.183594 C 105.199219 150.421875 105.339844 150.953125 105.101562 151.371094 L 100.132812 159.976562 C 99.972656 160.253906 99.683594 160.410156 99.382812 160.410156 C 99.234375 160.410156 99.082031 160.371094 98.945312 160.292969 C 98.53125 160.054688 98.390625 159.519531 98.628906 159.105469 L 103.597656 150.5 C 103.835938 150.085938 104.371094 149.949219 104.78125 150.183594 Z M 219.75 190.082031 C 218.828125 191.671875 217.160156 192.566406 215.441406 192.566406 C 214.601562 192.566406 213.75 192.351562 212.964844 191.902344 L 164.964844 164.191406 C 162.589844 162.820312 161.773438 159.785156 163.144531 157.40625 C 164.515625 155.035156 167.546875 154.214844 169.933594 155.585938 L 217.929688 183.296875 C 220.304688 184.667969 221.121094 187.703125 219.75 190.082031 Z M 229.6875 172.875 C 228.761719 174.46875 227.09375 175.359375 225.378906 175.359375 C 224.535156 175.359375 223.683594 175.148438 222.898438 174.695312 L 173.296875 146.0625 C 170.921875 144.6875 170.109375 141.652344 171.480469 139.273438 C 172.851562 136.902344 175.878906 136.082031 178.265625 137.453125 L 227.867188 166.089844 C 230.242188 167.460938 231.054688 170.5 229.6875 172.875 Z M 239.621094 155.667969 C 238.699219 157.265625 237.03125 158.152344 235.3125 158.152344 C 234.472656 158.152344 233.617188 157.941406 232.832031 157.488281 L 152.480469 111.09375 C 150.105469 109.722656 149.292969 106.6875 150.660156 104.308594 C 152.03125 101.933594 155.0625 101.113281 157.449219 102.488281 L 237.800781 148.882812 C 240.175781 150.257812 240.992188 153.292969 239.621094 155.667969 Z M 249.554688 138.464844 C 248.632812 140.058594 246.964844 140.949219 245.246094 140.949219 C 244.40625 140.949219 243.550781 140.734375 242.769531 140.28125 L 160.773438 92.945312 C 158.398438 91.570312 157.585938 88.535156 158.953125 86.15625 C 160.328125 83.785156 163.355469 82.964844 165.742188 84.335938 L 247.734375 131.679688 C 250.113281 133.050781 250.925781 136.085938 249.554688 138.464844 Z M 209.671875 86.757812 L 257.667969 114.472656 C 260.046875 115.84375 260.859375 118.882812 259.488281 121.257812 C 258.566406 122.851562 256.898438 123.742188 255.179688 123.742188 C 254.339844 123.742188 253.488281 123.527344 252.703125 123.078125 L 204.703125 95.363281 C 202.328125 93.992188 201.515625 90.953125 202.882812 88.578125 C 204.257812 86.195312 207.285156 85.378906 209.671875 86.757812 Z M 96.335938 215.160156 C 93.601562 215.160156 91.367188 212.925781 91.367188 210.195312 C 91.367188 207.464844 93.601562 205.226562 96.335938 205.226562 C 99.066406 205.226562 101.300781 207.464844 101.300781 210.195312 C 101.300781 212.925781 99.066406 215.160156 96.335938 215.160156 Z M 76.464844 215.160156 C 73.683594 215.160156 71.5 212.925781 71.5 210.195312 C 71.5 207.464844 73.683594 205.226562 76.464844 205.226562 C 79.195312 205.226562 81.433594 207.464844 81.433594 210.195312 C 81.433594 212.925781 79.195312 215.160156 76.464844 215.160156 Z M 71.5 84.023438 C 71.5 81.292969 73.730469 79.054688 76.464844 79.054688 C 79.195312 79.054688 81.433594 81.292969 81.433594 84.023438 C 81.433594 86.757812 79.195312 88.988281 76.464844 88.988281 C 73.730469 88.988281 71.5 86.757812 71.5 84.023438 Z M 71.5 84.023438 "/></g><g style="fill:#ffffff;fill-opacity:1;"><g transform="translate(65.916443, 311.364166)"><path style="stroke:none" d="M 37.6875 -60.578125 C 39.394531 -60.578125 40.898438 -60.128906 42.203125 -59.234375 C 43.429688 -58.347656 44.21875 -57.148438 44.5625 -55.640625 L 56.0625 -6.15625 C 56.125 -5.8125 56.15625 -5.234375 56.15625 -4.421875 C 55.957031 -3.117188 55.410156 -2.054688 54.515625 -1.234375 C 53.554688 -0.410156 52.425781 0 51.125 0 C 48.875 0 47.539062 -0.921875 47.125 -2.765625 L 44.5625 -14.265625 L 17.96875 -14.265625 L 12.109375 -2.765625 C 11.222656 -0.921875 9.6875 0 7.5 0 C 6.195312 0 5.203125 -0.410156 4.515625 -1.234375 C 3.765625 -2.054688 3.492188 -3.117188 3.703125 -4.421875 C 3.703125 -5.035156 3.867188 -5.613281 4.203125 -6.15625 L 29.671875 -55.640625 C 31.378906 -58.929688 34.050781 -60.578125 37.6875 -60.578125 Z M 22.375 -22.6875 L 42.609375 -22.6875 L 36.25 -50.109375 Z M 22.375 -22.6875 "/></g></g><g style="fill:#ffffff;fill-opacity:1;"><g transform="translate(124.536173, 311.364166)"><path style="stroke:none" d="M 31 0.609375 C 14.71875 0.609375 7.875 -8.726562 10.46875 -27.40625 L 14.578125 -56.0625 C 14.710938 -57.289062 15.296875 -58.347656 16.328125 -59.234375 C 17.285156 -60.128906 18.378906 -60.578125 19.609375 -60.578125 C 20.835938 -60.578125 21.832031 -60.128906 22.59375 -59.234375 C 23.34375 -58.347656 23.648438 -57.289062 23.515625 -56.0625 L 19.609375 -28.34375 C 17.628906 -14.644531 21.835938 -7.796875 32.234375 -7.796875 C 42.503906 -7.796875 48.632812 -14.644531 50.625 -28.34375 L 54.515625 -56.0625 C 54.648438 -57.289062 55.234375 -58.347656 56.265625 -59.234375 C 57.285156 -60.128906 58.414062 -60.578125 59.65625 -60.578125 C 60.882812 -60.578125 61.875 -60.128906 62.625 -59.234375 C 63.3125 -58.347656 63.585938 -57.289062 63.453125 -56.0625 L 59.34375 -27.40625 C 56.738281 -8.726562 47.289062 0.609375 31 0.609375 Z M 31 0.609375 "/></g></g><g style="fill:#ffffff;fill-opacity:1;"><g transform="translate(186.749076, 311.364166)"><path style="stroke:none" d="M 29.78125 -52.15625 L 15.609375 -52.15625 C 14.441406 -52.15625 13.515625 -52.566406 12.828125 -53.390625 C 12.078125 -54.210938 11.804688 -55.203125 12.015625 -56.359375 C 12.148438 -57.523438 12.695312 -58.519531 13.65625 -59.34375 C 14.539062 -60.164062 15.566406 -60.578125 16.734375 -60.578125 L 54 -60.578125 C 55.164062 -60.578125 56.125 -60.164062 56.875 -59.34375 C 57.5625 -58.519531 57.835938 -57.523438 57.703125 -56.359375 C 57.492188 -55.203125 56.945312 -54.210938 56.0625 -53.390625 C 55.101562 -52.566406 54.039062 -52.15625 52.875 -52.15625 L 38.703125 -52.15625 L 32.03125 -4.515625 C 31.820312 -3.285156 31.238281 -2.222656 30.28125 -1.328125 C 29.257812 -0.441406 28.132812 0 26.90625 0 C 25.664062 0 24.671875 -0.441406 23.921875 -1.328125 C 23.171875 -2.222656 22.894531 -3.285156 23.09375 -4.515625 Z M 29.78125 -52.15625 "/></g></g><g style="fill:#ffffff;fill-opacity:1;"><g transform="translate(240.646385, 311.364166)"><path style="stroke:none" d="M 34.09375 0.609375 C 31.625 0.609375 29.226562 0.335938 26.90625 -0.203125 C 24.570312 -0.679688 22.175781 -1.675781 19.71875 -3.1875 C 17.1875 -4.625 15.0625 -6.503906 13.34375 -8.828125 C 11.632812 -11.085938 10.40625 -14.164062 9.65625 -18.0625 C 8.894531 -21.96875 8.859375 -26.421875 9.546875 -31.421875 C 10.296875 -36.691406 11.835938 -41.3125 14.171875 -45.28125 C 16.429688 -49.25 19.164062 -52.363281 22.375 -54.625 C 25.59375 -56.8125 28.914062 -58.453125 32.34375 -59.546875 C 35.757812 -60.578125 39.21875 -61.09375 42.71875 -61.09375 C 46.207031 -61.09375 49.523438 -60.578125 52.671875 -59.546875 C 55.816406 -58.453125 58.691406 -56.8125 61.296875 -54.625 C 63.898438 -52.363281 65.816406 -49.25 67.046875 -45.28125 C 68.210938 -41.3125 68.414062 -36.691406 67.65625 -31.421875 C 66.976562 -26.421875 65.710938 -21.96875 63.859375 -18.0625 C 61.941406 -14.164062 59.820312 -11.085938 57.5 -8.828125 C 55.164062 -6.503906 52.5625 -4.625 49.6875 -3.1875 C 46.75 -1.675781 44.046875 -0.679688 41.578125 -0.203125 C 39.046875 0.335938 36.550781 0.609375 34.09375 0.609375 Z M 35.21875 -7.796875 C 48.632812 -7.796875 56.4375 -15.566406 58.625 -31.109375 C 60.675781 -45.484375 54.992188 -52.671875 41.578125 -52.671875 C 28.160156 -52.671875 20.425781 -45.484375 18.375 -31.109375 C 16.1875 -15.566406 21.800781 -7.796875 35.21875 -7.796875 Z M 35.21875 -7.796875 "/></g></g><g style="fill:#ffffff;fill-opacity:1;"><g transform="translate(121.530149, 347.479413)"><path style="stroke:none" d="M 13.796875 -22.171875 C 14.421875 -22.171875 14.96875 -22.007812 15.4375 -21.6875 C 15.894531 -21.351562 16.1875 -20.914062 16.3125 -20.375 L 20.515625 -2.25 C 20.546875 -2.125 20.5625 -1.910156 20.5625 -1.609375 C 20.476562 -1.140625 20.273438 -0.753906 19.953125 -0.453125 C 19.597656 -0.148438 19.1875 0 18.71875 0 C 17.882812 0 17.394531 -0.335938 17.25 -1.015625 L 16.3125 -5.21875 L 6.578125 -5.21875 L 4.4375 -1.015625 C 4.113281 -0.335938 3.550781 0 2.75 0 C 2.269531 0 1.90625 -0.148438 1.65625 -0.453125 C 1.375 -0.753906 1.273438 -1.140625 1.359375 -1.609375 C 1.359375 -1.835938 1.421875 -2.050781 1.546875 -2.25 L 10.859375 -20.375 C 11.484375 -21.570312 12.460938 -22.171875 13.796875 -22.171875 Z M 8.1875 -8.3125 L 15.59375 -8.3125 L 13.265625 -18.34375 Z M 8.1875 -8.3125 "/></g></g><g style="fill:#ffffff;fill-opacity:1;"><g transform="translate(151.084726, 347.479413)"><path style="stroke:none" d="M 15.75 -22.171875 C 17.519531 -22.171875 19.019531 -21.554688 20.25 -20.328125 C 21.476562 -19.097656 21.914062 -17.296875 21.5625 -14.921875 C 21.363281 -13.441406 20.988281 -12.175781 20.4375 -11.125 C 19.882812 -10.070312 19.234375 -9.28125 18.484375 -8.75 C 17.710938 -8.195312 16.953125 -7.8125 16.203125 -7.59375 C 15.421875 -7.34375 14.617188 -7.21875 13.796875 -7.21875 L 6.53125 -7.21875 L 5.75 -1.65625 C 5.675781 -1.207031 5.460938 -0.816406 5.109375 -0.484375 C 4.734375 -0.160156 4.320312 0 3.875 0 C 3.414062 0 3.050781 -0.160156 2.78125 -0.484375 C 2.507812 -0.816406 2.410156 -1.207031 2.484375 -1.65625 L 5.109375 -20.515625 C 5.179688 -20.960938 5.394531 -21.351562 5.75 -21.6875 C 6.101562 -22.007812 6.503906 -22.171875 6.953125 -22.171875 Z M 8.1875 -19.09375 L 6.953125 -10.296875 L 14.046875 -10.296875 C 16.503906 -10.296875 17.945312 -11.835938 18.375 -14.921875 C 18.78125 -17.703125 17.753906 -19.09375 15.296875 -19.09375 Z M 8.1875 -19.09375 "/></g></g><g style="fill:#ffffff;fill-opacity:1;"><g transform="translate(179.813371, 347.479413)"><path style="stroke:none" d="M 15.75 -22.171875 C 17.519531 -22.171875 19.019531 -21.554688 20.25 -20.328125 C 21.476562 -19.097656 21.914062 -17.296875 21.5625 -14.921875 C 21.363281 -13.441406 20.988281 -12.175781 20.4375 -11.125 C 19.882812 -10.070312 19.234375 -9.28125 18.484375 -8.75 C 17.710938 -8.195312 16.953125 -7.8125 16.203125 -7.59375 C 15.421875 -7.34375 14.617188 -7.21875 13.796875 -7.21875 L 6.53125 -7.21875 L 5.75 -1.65625 C 5.675781 -1.207031 5.460938 -0.816406 5.109375 -0.484375 C 4.734375 -0.160156 4.320312 0 3.875 0 C 3.414062 0 3.050781 -0.160156 2.78125 -0.484375 C 2.507812 -0.816406 2.410156 -1.207031 2.484375 -1.65625 L 5.109375 -20.515625 C 5.179688 -20.960938 5.394531 -21.351562 5.75 -21.6875 C 6.101562 -22.007812 6.503906 -22.171875 6.953125 -22.171875 Z M 8.1875 -19.09375 L 6.953125 -10.296875 L 14.046875 -10.296875 C 16.503906 -10.296875 17.945312 -11.835938 18.375 -14.921875 C 18.78125 -17.703125 17.753906 -19.09375 15.296875 -19.09375 Z M 8.1875 -19.09375 "/></g></g><g style="fill:#ffffff;fill-opacity:1;"><g transform="translate(208.542015, 347.479413)"><path style="stroke:none" d="M 4.0625 0 C 3.601562 0 3.238281 -0.160156 2.96875 -0.484375 C 2.695312 -0.816406 2.597656 -1.207031 2.671875 -1.65625 L 5.296875 -20.515625 C 5.367188 -20.960938 5.582031 -21.351562 5.9375 -21.6875 C 6.289062 -22.007812 6.691406 -22.171875 7.140625 -22.171875 C 7.585938 -22.171875 7.960938 -22.007812 8.265625 -21.6875 C 8.546875 -21.351562 8.644531 -20.960938 8.5625 -20.515625 L 6.125 -3.078125 L 15.25 -3.078125 C 15.675781 -3.078125 16.03125 -2.925781 16.3125 -2.625 C 16.5625 -2.320312 16.648438 -1.960938 16.578125 -1.546875 C 16.523438 -1.117188 16.335938 -0.753906 16.015625 -0.453125 C 15.660156 -0.148438 15.269531 0 14.84375 0 Z M 4.0625 0 "/></g></g><g style="fill:#ffffff;fill-opacity:1;"><g transform="translate(234.567614, 347.479413)"><path style="stroke:none" d="M 11.265625 -1.65625 C 11.191406 -1.207031 10.984375 -0.816406 10.640625 -0.484375 C 10.265625 -0.160156 9.847656 0 9.390625 0 C 8.941406 0 8.582031 -0.160156 8.3125 -0.484375 C 8.03125 -0.816406 7.925781 -1.207031 8 -1.65625 L 8.828125 -7.484375 L 3.6875 -19.734375 C 3.601562 -20.003906 3.578125 -20.28125 3.609375 -20.5625 C 3.679688 -21.007812 3.894531 -21.394531 4.25 -21.71875 C 4.59375 -22.019531 4.992188 -22.171875 5.453125 -22.171875 C 6.023438 -22.171875 6.445312 -21.90625 6.71875 -21.375 L 11.015625 -11.390625 L 18.109375 -21.375 C 18.460938 -21.90625 18.941406 -22.171875 19.546875 -22.171875 C 20.015625 -22.171875 20.390625 -22.019531 20.671875 -21.71875 C 20.921875 -21.394531 21.007812 -21.007812 20.9375 -20.5625 C 20.90625 -20.300781 20.800781 -20.023438 20.625 -19.734375 L 12.09375 -7.484375 Z M 11.265625 -1.65625 "/></g></g></g></svg>