<?xml version="1.0" encoding="UTF-8" standalone="no"?>
<!DOCTYPE svg PUBLIC "-//W3C//DTD SVG 1.1//EN" "http://www.w3.org/Graphics/SVG/1.1/DTD/svg11.dtd">
<svg width="100%" height="100%" viewBox="0 0 44 45" version="1.1" xmlns="http://www.w3.org/2000/svg" xmlns:xlink="http://www.w3.org/1999/xlink" xml:space="preserve" xmlns:serif="http://www.serif.com/" style="fill-rule:evenodd;clip-rule:evenodd;stroke-linejoin:round;stroke-miterlimit:2;">
    <g>
        <path d="M8.3,5C8.4,5.9 9.8,13.8 9.4,20.7C9.3,22.6 12.2,23.7 13.3,23.6C16.2,23.1 14.9,19.6 14.9,14C14.9,8.4 15.5,4 14.7,3.5C14.4,3.3 13.4,3.4 12.9,3.5C11.1,4.1 13.2,16.9 12.2,16.9C10.9,16.9 12.3,4.5 11.5,3.9C11.2,3.4 8.1,3.6 8.3,5Z" style="fill:rgb(29,29,27);fill-rule:nonzero;"/>
        <path d="M16.1,21.8C15.6,21.3 15.4,16.5 15.4,13.7C15.4,11.1 15.7,3.7 15.7,3.5C15.7,2.7 17,2.8 17.6,2.8C18,2.7 19.5,2.7 19.6,3.1C19.7,3.4 19.5,10.7 19.8,11.1C20.3,11.7 19.7,3.2 20.8,2.5C21.3,2.2 24.2,2.3 24.6,2.4C26.4,2.5 24.4,4.2 24.4,7.6C24.4,8.1 23.8,16.2 23.7,17.3C23.6,18.4 24,22.9 23.6,23.1C23.2,23.3 20.4,23.4 19.9,22.8C19.4,22.2 20.6,19.1 20.8,17.4C21,15.2 21.5,11.5 20.9,11.5C20.6,11.5 20.8,18.4 19.6,18.5C18.3,18.6 18.9,11.9 18.6,12C18.3,12 18.4,13.8 18.4,14.4C18.4,15.4 18.3,17.5 18.7,18.5C19.1,19.5 19.2,20.7 19.3,21.1C19.4,21.6 18.4,21.5 17.8,21.8C17.1,22.1 16.6,22.3 16.1,21.8Z" style="fill:rgb(29,29,27);fill-rule:nonzero;"/>
        <path d="M38.4,33.6C38.7,33.6 39.3,33.7 39.6,34.3C39.8,34.9 41.2,36.1 40.7,36.7C39.9,37.6 38.4,36.7 37.1,36.8C36.7,36.8 36.3,36.6 36.4,37.6C36.5,38.1 36.8,38 36.4,38.7C36,39.5 34,39.4 33.8,39.4C33.3,39.4 29.9,39.1 29.6,38.4C29.1,37.3 30.5,37 30.4,36.1C30.3,35.7 28.5,35.1 28.1,34.9C27.4,34.7 27.5,34 27.6,33.2L27.6,31C27.6,30.2 28.6,30 28.9,30.2C33.5,33 35.8,33.9 38.4,33.6Z" style="fill:rgb(29,29,27);fill-rule:nonzero;"/>
        <path d="M11.8,33.6C11.7,29.2 10.4,29.8 9.4,29.6C11.6,29.4 12.7,26.2 11,23.8C10.5,23.1 9.5,21.5 8.2,22.5C6.1,24.3 3.3,23.1 3.8,24.4C4.3,25.7 4.8,29.5 4.9,30.4C5,31.5 4.7,33.2 4.6,35.1C4.6,35.4 3.4,35.9 3.4,36.2C3.4,37.4 4.4,37.7 5.2,38.1C6.1,38.5 9.5,39.4 11.1,38.1C12.1,37.2 11.8,36.1 11.8,33.6ZM7.7,27.1C7.3,27 7.6,24.8 8.4,26.2C8.6,26.6 9.1,27.5 7.7,27.1ZM7.9,34.9C7.1,34.7 7.6,33 8.3,33C8.8,33 9.9,35.3 7.9,34.9Z" style="fill:rgb(29,29,27);fill-rule:nonzero;"/>
        <path d="M12.5,36.6C12.6,37.3 14.3,39 16.7,38.9C17.2,38.9 18.9,38.8 19,37.9C19.3,36.4 19.8,30.3 19.3,27.8C18.9,25.7 20,22.2 18.3,22.2C16.1,22.2 16.1,23.3 14.7,23.5C13.2,23.7 12.2,25.5 12,27.1C11.8,29.5 12.2,34.5 12.5,36.6ZM15.2,27.9C15.3,27.8 15.9,27.8 16.1,27.9C16.4,28.1 16,31.5 16,31.7C16,32.1 16.1,34.7 15.2,34.2C15,34.2 15.1,28.1 15.2,27.9Z" style="fill:rgb(29,29,27);fill-rule:nonzero;"/>
        <path d="M27.3,31.8C27.4,30.2 27.2,29 25.9,28.1C23.7,26.7 24.3,23.4 21.3,23.5C19.9,23.6 20.2,26.6 20.1,27.5C20,29.6 20,34.2 20.1,37.2C20.1,38.5 22.1,38.9 22.5,39C25.1,39.3 28,39.5 27.7,37.5C27.3,35.6 27.1,34 27.3,31.8ZM23.9,33.9C23.9,34.6 24,35.2 23.4,35C22.8,34.8 23.1,33.8 23.1,33.3C23.1,33.1 23,29.6 23.2,29.4C23.3,29.3 23.8,30 24,30.6C24.2,31.2 23.9,33.4 23.9,33.9Z" style="fill:rgb(29,29,27);fill-rule:nonzero;"/>
        <path d="M8.1,8.2C8.1,8.8 8.4,11 7.9,11.4C7.5,11.7 5.6,11.8 5.4,11.5C5.1,11 5.6,9.5 4.9,9C4.7,8.9 4.5,9 4.3,9.6C3.9,11.1 4.3,13.4 4.6,14.9C4.8,15.8 5.3,18.1 5.8,18.1C6.5,18.1 6.6,16.9 6.6,16.1C6.5,14.6 5.3,15.4 5.1,14.6C5,13.8 4.4,12.3 5.2,12.2C6,12 8.1,11.5 8.4,12C8.9,12.8 9.8,19.9 8,21.8C6.4,23.5 3.5,23.3 3.3,22.7C2.5,20.1 1.4,18.9 1.3,16.2C1.2,14.6 0.1,7.5 0.7,6C1.2,4.6 3,5.1 6.9,4.2C8.2,3.9 8.1,7.5 8.1,8.2Z" style="fill:rgb(29,29,27);fill-rule:nonzero;"/>
        <g>
            <path d="M9.2,39.2C8.5,39.3 5.7,39.2 4.6,38.8C4.3,38.7 4.4,40.7 4.4,42C4.4,42.5 3.8,43.7 4.3,44.1C4.5,44.2 5.4,44.2 5.9,44.2C6.2,44.2 7,44.4 7.2,44.2C7.4,44 7,43 7.2,42.9C7.4,42.8 9.2,43.1 9.4,42.9C9.5,42.8 9.4,41.9 9.4,41.8C9.4,41.5 7.4,41.9 7.2,41.8C6.8,41.6 7,41.5 7,41.4C7.1,41 9.4,41.7 9.5,41.3C9.7,40.9 10,39.1 9.2,39.2Z" style="fill:rgb(202,158,103);fill-rule:nonzero;"/>
            <path d="M14.5,41.8C14.1,41.4 13.8,41.4 13.9,41.4C14.1,41.3 14.7,41.5 14.9,41.5C15.9,41.6 16.6,41 16.5,39.7C16.4,39.1 15.5,39.4 14.4,39.1C13.1,38.8 12.4,38.7 11.9,38.8C10.9,38.9 9.5,39.2 9.7,40.1C10,40.8 8.9,43.7 9.5,44.1C9.9,44.2 11.3,44.3 11.5,44.2C12,43.9 11.3,42.9 11.6,42.4C11.7,42.3 11.9,42.4 12.1,42.6C12.9,43.8 12.3,43.7 13,44.1C13.3,44.3 15.3,43.1 15.4,42.9C15.6,42 15.1,42.3 14.5,41.8ZM11.9,40.6C11.8,40.2 12.9,40.2 12.9,40.4C12.9,40.7 12.9,40.7 12.6,40.7C12.2,40.7 11.9,40.8 11.9,40.6Z" style="fill:rgb(202,158,103);fill-rule:nonzero;"/>
            <path d="M25,43.4L25,43.4Z" style="fill:rgb(202,158,103);fill-rule:nonzero;"/>
            <path d="M22.9,42C21.8,42 22.2,41.1 22.3,41C22.7,40.9 23.4,41.5 23.7,41.3C23.9,41.2 24.3,40.1 24.3,39.6C24.3,39.1 23.7,39.6 21.6,39.2C20,38.9 19.8,38.8 17.1,39C16.8,39 16.8,40.1 16.9,40.6C17,41.1 18.7,40.6 19.4,41C19.5,41.1 19.6,41.3 19.5,41.4C19.4,41.5 18.5,41 18.6,41.6C18.6,41.8 18.6,42.4 18.9,42.7C19.2,43 20.1,43.2 20.7,43.3C21.7,43.4 21.9,43.4 22.2,43.5C22.8,43.8 24.6,44 24.5,43.6C24.7,44.1 24.1,42.1 24,42L22.9,42Z" style="fill:rgb(202,158,103);fill-rule:nonzero;"/>
            <path d="M31.4,40.6C30.9,39.7 30,39.3 29,39.3C28,39.3 25.7,39.5 25,39.8C24.6,40.1 24.7,40.8 24.4,41.5C24.1,42 25.9,41.4 25.9,41.7C25.9,42.1 26.1,42.5 26.1,42.9C26.1,43 24.8,42.7 24.8,42.8C24.8,43.3 25,44.3 25.1,44.4C26.1,44.8 28.6,44.5 29.6,43.9C30.8,43.2 31.9,41.5 31.4,40.6ZM27.8,42.3L27.8,41.7C27.8,41.4 28.9,41.4 28.9,41.7C29.1,42.2 27.8,42.6 27.8,42.3Z" style="fill:rgb(202,158,103);fill-rule:nonzero;"/>
            <path d="M37.1,41.8C36.3,41.1 36.4,40.2 35.8,40C34.9,39.6 34.9,40.1 32.9,39.8C32.1,39.7 32.2,41.2 31.9,41.8C31.5,42.5 29.9,44 30.5,43.9C32.7,43.6 32.6,44.7 34.3,44.1C34.5,44 34.4,43 34.3,42.6C34.2,42.3 34,42.2 34.8,42.2C34.9,42.5 35.1,43.6 35.3,43.8C35.5,44 36.5,43.6 36.9,43.5C37.8,43.3 37.7,42.3 37.1,41.8ZM33.1,40.9L33.1,40.9ZM34.1,41.6C34.1,41.3 34.3,41 34.5,41.1C35.3,41.4 34.6,41.5 34.1,41.6Z" style="fill:rgb(202,158,103);fill-rule:nonzero;"/>
            <path d="M42,36.9C41.6,35.9 41.2,37 40.7,37.3C40.3,37.6 39.8,37.3 39.8,37.7C39.7,38.7 40.1,39.6 39.9,39.7C39.5,39.9 39.4,37.2 38.8,37.2C36.8,37 38.1,38.5 37.5,38.8C36.9,39.2 36.4,39.1 36.5,39.5C36.7,40.4 37.9,40.9 38.3,41.1C38.8,41.4 38.4,42.4 39.1,42.4C39.8,42.4 42.1,41 42,40.8C41.9,40.3 40.8,40.8 41.3,39.8C41.4,39.5 42.4,37.9 42,36.9Z" style="fill:rgb(202,158,103);fill-rule:nonzero;"/>
        </g>
        <path d="M0.6,4.9C1.6,4.7 5.7,4 7.9,3.6C10.1,3.2 13.7,2.5 16.3,2.2C18.9,1.9 22.2,2 25.5,2C26.1,2 25.9,0.2 25.6,0.2C21,-0.2 13.6,0.7 10.6,1.3C7.6,1.9 1.4,3.2 0.2,3.5C-0.1,3.6 0.1,5 0.6,4.9Z" style="fill:rgb(202,158,103);fill-rule:nonzero;"/>
    </g>
</svg>
