<?xml version="1.0" encoding="utf-8"?>
<!-- Generator: Adobe Illustrator 25.3.0, SVG Export Plug-In . SVG Version: 6.00 Build 0)  -->
<svg version="1.1" id="Layer_2" xmlns="http://www.w3.org/2000/svg" xmlns:xlink="http://www.w3.org/1999/xlink" x="0px" y="0px"
	 viewBox="0 0 43.6 44.5" style="enable-background:new 0 0 43.6 44.5;" xml:space="preserve">
<style type="text/css">
	.st0{fill:#FFFFFF;}
	.st1{fill:#CA9E67;}
</style>
<g>
	<path class="st0" d="M8.3,5c0.1,0.9,1.5,8.8,1.1,15.7c-0.1,1.9,2.8,3,3.9,2.9c2.9-0.5,1.6-4,1.6-9.6s0.6-10-0.2-10.5
		c-0.3-0.2-1.3-0.1-1.8,0c-1.8,0.6,0.3,13.4-0.7,13.4c-1.3,0,0.1-12.4-0.7-13C11.2,3.4,8.1,3.6,8.3,5z"/>
	<path class="st0" d="M16.1,21.8c-0.5-0.5-0.7-5.3-0.7-8.1c0-2.6,0.3-10,0.3-10.2c0-0.8,1.3-0.7,1.9-0.7c0.4-0.1,1.9-0.1,2,0.3
		c0.1,0.3-0.1,7.6,0.2,8c0.5,0.6-0.1-7.9,1-8.6c0.5-0.3,3.4-0.2,3.8-0.1c1.8,0.1-0.2,1.8-0.2,5.2c0,0.5-0.6,8.6-0.7,9.7
		c-0.1,1.1,0.3,5.6-0.1,5.8s-3.2,0.3-3.7-0.3c-0.5-0.6,0.7-3.7,0.9-5.4c0.2-2.2,0.7-5.9,0.1-5.9c-0.3,0-0.1,6.9-1.3,7
		c-1.3,0.1-0.7-6.6-1-6.5c-0.3,0-0.2,1.8-0.2,2.4c0,1-0.1,3.1,0.3,4.1c0.4,1,0.5,2.2,0.6,2.6c0.1,0.5-0.9,0.4-1.5,0.7
		C17.1,22.1,16.6,22.3,16.1,21.8z"/>
	<path class="st0" d="M38.4,33.6c0.3,0,0.9,0.1,1.2,0.7c0.2,0.6,1.6,1.8,1.1,2.4c-0.8,0.9-2.3,0-3.6,0.1c-0.4,0-0.8-0.2-0.7,0.8
		c0.1,0.5,0.4,0.4,0,1.1c-0.4,0.8-2.4,0.7-2.6,0.7c-0.5,0-3.9-0.3-4.2-1c-0.5-1.1,0.9-1.4,0.8-2.3c-0.1-0.4-1.9-1-2.3-1.2
		c-0.7-0.2-0.6-0.9-0.5-1.7c0-0.3,0-1.7,0-2.2c0-0.8,1-1,1.3-0.8C33.5,33,35.8,33.9,38.4,33.6z"/>
	<path class="st0" d="M11.8,33.6c-0.1-4.4-1.4-3.8-2.4-4c2.2-0.2,3.3-3.4,1.6-5.8c-0.5-0.7-1.5-2.3-2.8-1.3
		c-2.1,1.8-4.9,0.6-4.4,1.9c0.5,1.3,1,5.1,1.1,6c0.1,1.1-0.2,2.8-0.3,4.7c0,0.3-1.2,0.8-1.2,1.1c0,1.2,1,1.5,1.8,1.9
		c0.9,0.4,4.3,1.3,5.9,0C12.1,37.2,11.8,36.1,11.8,33.6z M7.7,27.1c-0.4-0.1-0.1-2.3,0.7-0.9C8.6,26.6,9.1,27.5,7.7,27.1z M7.9,34.9
		C7.1,34.7,7.6,33,8.3,33C8.8,33,9.9,35.3,7.9,34.9z"/>
	<path class="st0" d="M12.5,36.6c0.1,0.7,1.8,2.4,4.2,2.3c0.5,0,2.2-0.1,2.3-1c0.3-1.5,0.8-7.6,0.3-10.1c-0.4-2.1,0.7-5.6-1-5.6
		c-2.2,0-2.2,1.1-3.6,1.3c-1.5,0.2-2.5,2-2.7,3.6C11.8,29.5,12.2,34.5,12.5,36.6z M15.2,27.9c0.1-0.1,0.7-0.1,0.9,0
		c0.3,0.2-0.1,3.6-0.1,3.8c0,0.4,0.1,3-0.8,2.5C15,34.2,15.1,28.1,15.2,27.9z"/>
	<path class="st0" d="M27.3,31.8c0.1-1.6-0.1-2.8-1.4-3.7c-2.2-1.4-1.6-4.7-4.6-4.6c-1.4,0.1-1.1,3.1-1.2,4c-0.1,2.1-0.1,6.7,0,9.7
		c0,1.3,2,1.7,2.4,1.8c2.6,0.3,5.5,0.5,5.2-1.5C27.3,35.6,27.1,34,27.3,31.8z M23.9,33.9c0,0.7,0.1,1.3-0.5,1.1
		c-0.6-0.2-0.3-1.2-0.3-1.7c0-0.2-0.1-3.7,0.1-3.9c0.1-0.1,0.6,0.6,0.8,1.2C24.2,31.2,23.9,33.4,23.9,33.9z"/>
	<path class="st0" d="M8.1,8.2c0,0.6,0.3,2.8-0.2,3.2c-0.4,0.3-2.3,0.4-2.5,0.1c-0.3-0.5,0.2-2-0.5-2.5C4.7,8.9,4.5,9,4.3,9.6
		c-0.4,1.5,0,3.8,0.3,5.3c0.2,0.9,0.7,3.2,1.2,3.2c0.7,0,0.8-1.2,0.8-2c-0.1-1.5-1.3-0.7-1.5-1.5c-0.1-0.8-0.7-2.3,0.1-2.4
		C6,12,8.1,11.5,8.4,12c0.5,0.8,1.4,7.9-0.4,9.8c-1.6,1.7-4.5,1.5-4.7,0.9c-0.8-2.6-1.9-3.8-2-6.5C1.2,14.6,0.1,7.5,0.7,6
		C1.2,4.6,3,5.1,6.9,4.2C8.2,3.9,8.1,7.5,8.1,8.2z"/>
	<g>
		<path class="st1" d="M9.2,39.2c-0.7,0.1-3.5,0-4.6-0.4c-0.3-0.1-0.2,1.9-0.2,3.2c0,0.5-0.6,1.7-0.1,2.1c0.2,0.1,1.1,0.1,1.6,0.1
			c0.3,0,1.1,0.2,1.3,0c0.2-0.2-0.2-1.2,0-1.3c0.2-0.1,2,0.2,2.2,0c0.1-0.1,0-1,0-1.1c0-0.3-2,0.1-2.2,0C6.8,41.6,7,41.5,7,41.4
			c0.1-0.4,2.4,0.3,2.5-0.1C9.7,40.9,10,39.1,9.2,39.2z"/>
		<path class="st1" d="M14.5,41.8c-0.4-0.4-0.7-0.4-0.6-0.4c0.2-0.1,0.8,0.1,1,0.1c1,0.1,1.7-0.5,1.6-1.8c-0.1-0.6-1-0.3-2.1-0.6
			c-1.3-0.3-2-0.4-2.5-0.3c-1,0.1-2.4,0.4-2.2,1.3c0.3,0.7-0.8,3.6-0.2,4c0.4,0.1,1.8,0.2,2,0.1c0.5-0.3-0.2-1.3,0.1-1.8
			c0.1-0.1,0.3,0,0.5,0.2c0.8,1.2,0.2,1.1,0.9,1.5c0.3,0.2,2.3-1,2.4-1.2C15.6,42,15.1,42.3,14.5,41.8z M11.9,40.6
			c-0.1-0.4,1-0.4,1-0.2c0,0.3,0,0.3-0.3,0.3C12.2,40.7,11.9,40.8,11.9,40.6z"/>
		<path class="st1" d="M25,43.4C25,43.4,25,43.4,25,43.4C25,43.4,25,43.4,25,43.4C25,43.4,25,43.4,25,43.4z"/>
		<path class="st1" d="M22.9,42c-1.1,0-0.7-0.9-0.6-1c0.4-0.1,1.1,0.5,1.4,0.3c0.2-0.1,0.6-1.2,0.6-1.7c0-0.5-0.6,0-2.7-0.4
			c-1.6-0.3-1.8-0.4-4.5-0.2c-0.3,0-0.3,1.1-0.2,1.6c0.1,0.5,1.8,0,2.5,0.4c0.1,0.1,0.2,0.3,0.1,0.4c-0.1,0.1-1-0.4-0.9,0.2
			c0,0.2,0,0.8,0.3,1.1c0.3,0.3,1.2,0.5,1.8,0.6c1,0.1,1.2,0.1,1.5,0.2c0.6,0.3,2.4,0.5,2.3,0.1c0.2,0.5-0.4-1.5-0.5-1.6
			C23.9,42,23.6,42,22.9,42z"/>
		<path class="st1" d="M31.4,40.6c-0.5-0.9-1.4-1.3-2.4-1.3c-1,0-3.3,0.2-4,0.5c-0.4,0.3-0.3,1-0.6,1.7c-0.3,0.5,1.5-0.1,1.5,0.2
			c0,0.4,0.2,0.8,0.2,1.2c0,0.1-1.3-0.2-1.3-0.1c0,0.5,0.2,1.5,0.3,1.6c1,0.4,3.5,0.1,4.5-0.5C30.8,43.2,31.9,41.5,31.4,40.6z
			 M27.8,42.3c0-0.4,0-0.3,0-0.6c0-0.3,1.1-0.3,1.1,0C29.1,42.2,27.8,42.6,27.8,42.3z"/>
		<path class="st1" d="M37.1,41.8c-0.8-0.7-0.7-1.6-1.3-1.8c-0.9-0.4-0.9,0.1-2.9-0.2c-0.8-0.1-0.7,1.4-1,2c-0.4,0.7-2,2.2-1.4,2.1
			c2.2-0.3,2.1,0.8,3.8,0.2c0.2-0.1,0.1-1.1,0-1.5c-0.1-0.3-0.3-0.4,0.5-0.4c0.1,0.3,0.3,1.4,0.5,1.6c0.2,0.2,1.2-0.2,1.6-0.3
			C37.8,43.3,37.7,42.3,37.1,41.8z M33.1,40.9C33.1,40.9,33.1,40.9,33.1,40.9C33.1,40.9,33.1,40.9,33.1,40.9z M34.1,41.6
			c0-0.3,0.2-0.6,0.4-0.5C35.3,41.4,34.6,41.5,34.1,41.6z"/>
		<path class="st1" d="M42,36.9c-0.4-1-0.8,0.1-1.3,0.4c-0.4,0.3-0.9,0-0.9,0.4c-0.1,1,0.3,1.9,0.1,2c-0.4,0.2-0.5-2.5-1.1-2.5
			c-2-0.2-0.7,1.3-1.3,1.6c-0.6,0.4-1.1,0.3-1,0.7c0.2,0.9,1.4,1.4,1.8,1.6c0.5,0.3,0.1,1.3,0.8,1.3s3-1.4,2.9-1.6
			c-0.1-0.5-1.2,0-0.7-1C41.4,39.5,42.4,37.9,42,36.9z"/>
	</g>
	<path class="st1" d="M0.6,4.9C1.6,4.7,5.7,4,7.9,3.6s5.8-1.1,8.4-1.4S22.2,2,25.5,2c0.6,0,0.4-1.8,0.1-1.8c-4.6-0.4-12,0.5-15,1.1
		S1.4,3.2,0.2,3.5C-0.1,3.6,0.1,5,0.6,4.9z"/>
</g>
</svg>
