<svg xmlns="http://www.w3.org/2000/svg" viewBox="0 0 948.92871 960.34423"><defs><style>.a{fill:#c99e67;}.b{fill:#fff;}</style></defs><path class="a" d="M633.00335,85.53719c-92.57324-7.97925-239.74121,10.27246-299.7727,21.25-18.27442,3.3418-42.63306,8.24268-68.3125,13.6438a131.07479,131.07479,0,0,1-1.39893,36.79248c5.32422-.86938,10.35327-1.67749,14.96338-2.40259,44.176-6.94775,115.55518-21.4104,167.96-27.811,52.40479-6.40088,118.71045-3.739,184.7998-5.34522C644.24774,121.34847,639.592,86.10506,633.00335,85.53719Z" transform="translate(-14.17187 -14.17592)"/><path class="b" d="M285.73062,181.51083c2.4151,18.5791,30.7031,175.4512,21.4102,313.9082-2.5762,38.373,56.9834,61.0039,78.2178,57.2734,57.6679-10.125,32.3486-80.2226,32.3486-193.0586,0-112.8359,11.8017-200.4375-3.0361-211.3164-6.8106-4.9941-26.3672-2.6132-35.6778.4512-36.0488,11.8594,5.3516,267.8731-13.1719,267.7363-25.4472-.1855,2.212-249.0019-14.8789-261.1875C345.20232,151.22473,282.18372,154.22563,285.73062,181.51083Z" transform="translate(-14.17187 -14.17592)"/><path class="b" d="M441.85462,519.78c-9.9042-9.7705-13.6308-106.9821-13.6318-161.6442-.001-51.9629,5.6651-201.0313,5.6709-204.3047.0293-16.6289,25.6963-13.4131,37.1729-14.9277,8.7617-1.1573,37.0625-2.4883,40.4863,6.0058,2.498,6.1992-2.4854,153.043,3.9307,160.6055,9.4179,11.1016-1.1348-157.9531,19.1914-171.3887,9.0937-6.0107,68.7402-3.4258,77.08-2.7363,36,2.9756-4.6699,35.5771-4.6699,103.4824,0,10.7529-12.8125,171.5-14.9726,193.7764-2.2168,22.8535,5.6845,112.7889-1.085,116.6971s-63.3418,6.247-74.0078-5.6475c-10.666-11.8955,14.6973-74.3094,17.6748-108.7723,3.8594-44.6767,13.0322-117.2773,2.2715-117.2529-5.502.0127-2.2949,138.6738-25.0528,139.8564-26.1796,1.3614-13.7089-131.5771-19.6562-131.206s-4.4609,36.8008-4.4609,47.2031c0,19.7246-1.6368,62.2276,6.1406,81.2276,8.3515,20.4062,10.7701,44.3844,12.688,51.3971,2.5469,9.3115-18.4779,7.2475-30.0046,14.0159C462.85762,524.24843,451.61252,529.404,441.85462,519.78Z" transform="translate(-14.17187 -14.17592)"/><path class="b" d="M889.71242,755.27273c5.5647-.7458,18.991,2.6019,23.3445,13.6371,4.3535,11.0351,32.9016,35.5576,21.3353,49.0237-15.2959,17.8082-46.6358.2469-71.9043,1.3268-8.7745.375-16.0107-4.1961-13.8998,16.873,1.0942,10.9209,8.0657,7.6371.6848,22.559-7.6718,15.5117-47.8784,13.1979-51.6753,13.1725-10.1172-.0664-78.65267-5.4842-84.43039-19.0983-9.449-22.26483,18.34789-28.8988,15.89669-45.6117-1.2598-8.5996-37.4419-20.4681-46.255-23.4534-14.6906-4.9762-12.046-17.6875-10.1139-34.4487.6146-5.3325.1491-33.8083.002-43.7433-.2325-15.7055,19.1544-20.4947,25.1185-16.9961C791.865,743.68353,836.85942,762.35613,889.71242,755.27273Z" transform="translate(-14.17187 -14.17592)"/><path class="b" d="M355.642,754.94933c-1.2278-87.4172-27.5574-75.4712-48.5436-79.3456,43.2638-4.9706,66.51-68.4472,31.0705-116.7001-10.2293-13.9277-30.9628-46.4368-55.7124-25.7391-41.9765,35.1042-99.1135,11.6285-89.0775,38.3004,10.0332,26.6738,19.9477,101.3076,21.9169,120.9814,2.2253,22.2266-3.5842,56.2986-5.1402,93.3122-.2561,6.1192-24.703,16.1642-24.9151,21.754-.8868,23.2735,19.8958,31.0187,35.7884,37.8713,18.8588,8.1308,85.26428,25.04972,118.00808-.99038C361.5711,826.47255,356.36142,806.17023,355.642,754.94933Zm-80.7948-129.0772c-7.8244-2.3284-2.9139-45.5742,13.7595-17.8193C292.84522,615.10943,302.64922,634.14543,274.84722,625.87213Zm3.327,155.0088c-15.032-3.0185-5.5268-36.7432,8.2596-36.6826C297.09112,744.24513,317.60482,788.79793,278.17422,780.88093Z" transform="translate(-14.17187 -14.17592)"/><path class="b" d="M370.50112,814.96783c2.3879,15.0117,35.60128,48.14773,84.91526,46.39573,9.67108-.34359,43.19184-1.36984,46.55044-20.47839,5.41739-30.82194,15.7557-152.30594,6.3407-201.91734-7.8796-41.5224,14.8294-111.6255-19.9722-111.626-43.2398-.0005-43.2398,21.1729-72.7444,25.7504-29.7858,4.6211-50.4768,39.0983-53.9856,73.0651C356.83792,672.29993,364.03172,774.27063,370.50112,814.96783Zm54.9859-172.9551c2.8837-2.3183,14.2086-2.1718,17.6815.5098,5.0319,3.8809-1.3812,72.0352-1.3812,76.2734,0,8.9805,2.5408,59.2071-15.8073,50.625C419.84662,766.55183,422.60082,644.33113,425.487,642.01273Z" transform="translate(-14.17187 -14.17592)"/><path class="b" d="M666.51492,719.05013c2.2732-32.5046-1.0998-56.3713-28.4185-73.9704-43.1624-27.806-31.5488-94.2985-93.1309-91.9875-27.8648,1.0456-23.0035,63.0721-24.0446,80.3084-2.5145,41.6015-1.4421,134.1239.3591,194.4071.7684,25.707,39.45335,33.93257,49.0399,35.2301,51.39052,6.95568,110.99538,10.36367,103.68571-29.09266C666.7758,794.91977,663.44222,762.98933,666.51492,719.05013ZM598.408,761.141c0,14.6308,1.278,25.07-9.8486,22.0329s-5.4363-23.9468-5.5024-34.6089c-.0248-3.8965-2.8729-74.0821,2.1093-77.7481,2.6936-1.9805,12.8432,12.4272,15.9376,24.5367C604.00442,706.70423,598.408,752.11173,598.408,761.141Z" transform="translate(-14.17187 -14.17592)"/><path class="b" d="M283.00892,246.08113c0,12.9561,5.3106,55.1387-4.875,63.8926-7.3789,6.3349-45.4023,8.3896-49.414,1.706-6.5801-10.9629,4.164-40.3798-10.7637-49.2373-3.1914-1.8945-7.7129-.7422-11.4375,11.7989-8.918,30.0254.4668,76.5,5.7051,106.0488,3.1914,17.9922,13.4082,64.3193,23.959,63.708,14.8359-.8594,16.2968-24.083,15.3105-39.7002-1.9082-30.2178-26.7578-13.3281-29.2207-29.5527-2.457-16.1797-13.4492-45.2012,2.2168-48.4649,15.3848-3.206,56.9297-13.8652,63.4336-4.3066,10.8457,15.9316,27.8711,159.0088-8.1289,195.8242-32.4258,33.1602-90.7578,30.0264-94.543,17.4414-15.581-51.8057-37.8818-76.1797-39.8447-130.7695-1.0625-29.583-23.6631-172.6231-11.917-202.1328,11.0235-27.6944,46.4912-18.2618,125.3994-36.4239C283.42592,160.26673,283.00892,233.35063,283.00892,246.08113Z" transform="translate(-14.17187 -14.17592)"/><path class="a" d="M303.579,867.1203c-13.8259,1.5935-70.54481.08294-91.54241-7.33376-5.66-1.9993-3.8393,37.68563-4.2391,63.935-.1672,10.9777-11.06867,34.79039-2.37657,41.76949,3.215,2.5815,22.19378,2.05926,31.14308,2.14966,5.9562.0602,22.3227,3.5106,26.3674.6737,4.3763-3.0696-3.8172-24.98049-.3835-26.963,3.4338-1.9825,40.1159,3.0633,44.1884.4135,2.4887-1.6191-.629-20.3391-.2898-22.7622.7706-5.5048-39.5015,1.1062-44.5382-.665s-2.1269-4.6342-1.5364-7.1131c1.7664-7.4155,48.7694,6.4471,50.9327-1.4422C313.60962,901.37643,320.33852,865.1887,303.579,867.1203Z" transform="translate(-14.17187 -14.17592)"/><path class="a" d="M411.3432,919.68613c-8.6692-7.0798-13.57148-7.0514-11.47528-7.6407,4.7322-1.3305,15.8494,1.0198,20.7808,1.381,20.74622,1.51959,34.69541-10.93037,32.40085-36.65749-1.1164-12.51731-19.16255-6.81394-41.17165-12.075-25.2807-6.0431-40.5756-7.0452-49.75-5.8517-20.0716,2.6112-48.0009,8.0898-43.4903,25.5691,5.738,13.832-15.39926,71.57934-4.04166,80.15384,7.2892,1.0835,35.5138,4.8769,39.55,2.1707,9.3355-6.2592-4.02314-27.00551,1.91116-35.46091,1.4248-2.0302,6.45971-.52023,9.11657,3.63544,15.1231,23.65451,3.46888,21.30594,17.32653,29.22343,6.42666,3.67183,46.56272-20.01854,47.189-24.33494C431.94384,924.26266,422.6843,928.94813,411.3432,919.68613Zm-53.27168-24.7358c-1.0085-8.7117,19.59283-7.95371,19.59283-3.33181,0,5.9935-.81853,5.79891-5.39683,6.04291C365.21592,898.03713,358.50882,898.72823,358.07152,894.95033Z" transform="translate(-14.17187 -14.17592)"/><path class="a" d="M579.65082,924.19553c-22.7997-.6617-14.7248-18.4482-11.2767-19.3192,7.1542-1.8071,22.2442,9.8735,27.2908,6.6731,3.6835-2.336,12.1984-23.88768,12.2972-33.28618.1096-10.4301-11.0188,0-53.3771-7.6507-32.5437-5.878-35.45218-7.56912-89.77968-3.25556-6.12405.48624-5.48182,22.39494-3.83,31.686,1.7882,10.059,35.2499.5772,49.9235,8.5861,2.8164,1.5372,4.3515,6.2185,2.2329,7.7017-2.6454,1.8519-19.05468-7.94361-17.60628,4.94579.5433,4.8347.6746,16.40269,6.3774,21.93479s24.9156,10.96486,36.3438,11.79806c19.047,1.3887,25.0152,1.241,31.025,4.0016,12.5424,5.7614,48.3142,9.71171,45.7361,2.93061,3.56838,9.38614-7.0156-30.74038-9.64352-32.63645C597.93372,922.94393,592.75022,924.57573,579.65082,924.19553Z" transform="translate(-14.17187 -14.17592)"/><path class="a" d="M749.02021,894.93987c-10.8422-18.7794-27.8331-25.17589-47.1934-26.10259-19.3603-.9268-66.0824,3.7204-79.736,9.8119-8.0736,5.6148-6.4141,20.76938-12.9526,33.87878-5.0768,10.1788,30.2812-1.1126,29.7865,3.3585-.8215,7.4253,4.1758,15.6534,3.3245,24.5398-.1216,1.2695-25.3065-3.3446-25.2772-2.1888.2337,9.2468,3.54782,30.01369,5.41442,32.58369,19.4499,8.5057,69.27408,1.14326,89.26158-9.94314C736.3,947.20441,759.86251,913.71927,749.02021,894.93987Zm-71.514,34.83219c.7693-8.0103.6226-6.2806.946-12.2718.3599-6.6675,21.5986-6.7215,22.5322.3951C702.25571,927.58566,676.967,935.38746,677.50621,929.77206Z" transform="translate(-14.17187 -14.17592)"/><path class="a" d="M862.40061,919.06008c-16.01108-14.4943-14.56949-31.345-25.62689-36.11773-18.4291-7.9545-18.1229,2.1249-57.5663-4.6791-15.346-2.6472-13.2999,28.48338-19.0337,40.09368-7.3162,14.8146-40.16386,43.46043-27.875,41.93193,43.2627-5.3809,41.4352,15.5575,76.7241,4.4756,4.8964-1.5377,1.67786-21.71093.32606-29.45953-1.0261-5.882-6.9376-7.0199,9.1188-7.5333,1.8444,5.2238,6.92334,27.15776,10.90234,31.065,3.9789,3.9072,24.7668-3.655,31.9374-6.9025C876.64126,950.09269,875.01846,929.36068,862.40061,919.06008Zm-79.56579-17.79135c.0549-.0018.1115-.0113.167-.0129C782.94672,901.25823,782.88982,901.26653,782.83482,901.26873Zm20.4704,14.159c-.2083-6.3346,3.4524-11.8716,7.5937-9.8486C827.59482,910.895,812.82532,914.30073,803.30522,915.42773Z" transform="translate(-14.17187 -14.17592)"/><path class="a" d="M961.06324,822.19759c-8.2515-19.3401-16.074,1.189-26.9901,7.8966-8.8908,5.4631-17.3267-.4405-18.5104,8.9591-2.5156,19.9767,6.69446,38.63307,1.14046,40.76057-8.6027,3.2954-10.9087-49.80965-21.844-50.83337-40.86062-3.8252-14.65418,25.06994-26.60371,32.87773-12.14258,7.93393-22.16434,6.861-20.11975,14.25424,4.87071,17.61249,28.84657,28.19253,37.00077,33.00783,9.7827,5.777,1.505,25.3031,15.66383,25.3031,14.1587,0,59.67041-27.12464,58.32781-32.52014-2.6482-10.642-23.1542-.0017-13.6746-19.237C950.1435,873.14965,969.31484,841.53769,961.06324,822.19759Z" transform="translate(-14.17187 -14.17592)"/><path class="a" d="M243.77032,86.20462A119.74793,119.74793,0,1,1,86.2,24.13822,119.75423,119.75423,0,0,1,243.77032,86.20462Z" transform="translate(-14.17187 -14.17592)"/><path class="b" d="M159.40412,16.941c-1.2803-.2793-2.5664-.544-3.8575-.7823l8.4932,3.3457.8965-.3837Z" transform="translate(-14.17187 -14.17592)"/><path class="b" d="M146.60722,14.86092c-.832-.0889-1.6631-.1719-2.4961-.2441l16.3281,6.4316.8965-.3848Z" transform="translate(-14.17187 -14.17592)"/><path class="b" d="M137.51642,14.23982c-.668-.0195-1.335-.041-2.0039-.0518l21.3271,8.4024.9004-.3848Z" transform="translate(-14.17187 -14.17592)"/><path class="b" d="M154.14142,23.74762l-24.1289-9.5039c-.5645.0156-1.127.0449-1.6905.0723l25.8555,10.1845-.0361-.7529Z" transform="translate(-14.17187 -14.17592)"/><path class="b" d="M123.50272,14.63432c-.501.045-1.0049.0957-1.5059.1465l32.3321,12.7363-.0381-.7539Z" transform="translate(-14.17187 -14.17592)"/><path class="b" d="M117.657,15.29452c-.4561.0635-.9111.1318-1.3652.2012l38.1884,15.042-.038-.753Z" transform="translate(-14.17187 -14.17592)"/><path class="b" d="M112.322,16.15c-.417.0771-.8339.164-1.25.2461l43.5577,17.1601-.0362-.7539Z" transform="translate(-14.17187 -14.17592)"/><path class="b" d="M107.39922,17.17442c-.3955.0888-.792.1758-1.1865.2705l48.5683,19.1328-.0371-.7549Z" transform="translate(-14.17187 -14.17592)"/><path class="b" d="M102.79662,18.32182c-.3671.0987-.7324.2012-1.0996.3037l53.2364,20.9707-.0381-.7519Z" transform="translate(-14.17187 -14.17592)"/><path class="b" d="M98.47832,19.57872c-.3506.1093-.7002.2148-1.0488.3252l57.6533,22.7109-.0362-.7529Z" transform="translate(-14.17187 -14.17592)"/><path class="b" d="M94.39432,20.92732c-.3242.1152-.6514.2363-.9775.3545l61.8154,24.3506-.0361-.7549Z" transform="translate(-14.17187 -14.17592)"/><path class="b" d="M90.52522,22.36582c-.3135.122-.627.2431-.9414.3681l65.7998,25.918-.0381-.7529Z" transform="translate(-14.17187 -14.17592)"/><path class="b" d="M86.83472,23.87162c-.2109.0899-.4238.1758-.6347.2666-.0869.0381-.1748.0801-.2618.1192l35.8907,14.1377.8984-.3858Z" transform="translate(-14.17187 -14.17592)"/><path class="b" d="M83.30642,25.44292c-.2851.1328-.5625.2715-.8457.4063l35.7676,14.0879.8984-.3848Z" transform="translate(-14.17187 -14.17592)"/><path class="b" d="M79.94512,27.08062c-.2744.1367-.543.2774-.8154.417l35.499,13.9844.8965-.3848Z" transform="translate(-14.17187 -14.17592)"/><path class="b" d="M76.72142,28.76912c-.2617.1416-.5244.2852-.7861.4277L111.032,43.023l.8984-.3848Z" transform="translate(-14.17187 -14.17592)"/><path class="b" d="M73.62092,30.51032c-.251.1475-.5069.291-.7598.4385l39.4961,15.5566-.3858-.8896Z" transform="translate(-14.17187 -14.17592)"/><path class="b" d="M70.65022,32.29352c-.2422.1514-.4893.2988-.7286.4502l43.9854,17.3272-.3877-.8897Z" transform="translate(-14.17187 -14.17592)"/><path class="b" d="M67.782,34.12752q-.3486.23145-.6943.4648l48.3759,19.0557-.3877-.8916Z" transform="translate(-14.17187 -14.17592)"/><path class="b" d="M65.02812,35.99962c-.2236.1572-.4404.3203-.6641.4785l52.6514,20.7392-.3887-.8935Z" transform="translate(-14.17187 -14.17592)"/><path class="b" d="M62.37972,37.91752c-.2139.1582-.4239.3243-.6377.4844l56.8261,22.3838-.3877-.8896Z" transform="translate(-14.17187 -14.17592)"/><path class="b" d="M59.82792,39.87362c-.208.1621-.4111.3301-.6191.4951l60.914,23.9941-.3877-.8906Z" transform="translate(-14.17187 -14.17592)"/><path class="b" d="M57.36892,41.86382c-.2002.167-.3984.335-.5986.503l64.9033,25.5644-.3877-.8887Z" transform="translate(-14.17187 -14.17592)"/><path class="b" d="M54.992,43.89212c-.1934.17-.3848.3399-.5772.5118l28.3721,11.1738.8965-.3848Z" transform="translate(-14.17187 -14.17592)"/><path class="b" d="M52.70682,45.94882c-.1875.1728-.373.3457-.5596.5195l27.044,10.6514.8974-.3838Z" transform="translate(-14.17187 -14.17592)"/><path class="b" d="M50.49882,48.03962q-.27105.2622-.5381.5264l25.6328,10.0967.8985-.3838Z" transform="translate(-14.17187 -14.17592)"/><path class="b" d="M48.37092,50.16072c-.1739.1777-.3487.3545-.5196.5332l24.1465,9.5117.8965-.3857Z" transform="translate(-14.17187 -14.17592)"/><path class="b" d="M46.31812,52.31112c-.1679.1807-.3359.3603-.5019.541l26.0039,10.2432-.1436-.7959Z" transform="translate(-14.17187 -14.17592)"/><path class="b" d="M44.34062,54.48982c-.1621.1826-.3223.3633-.4834.5469L72.405,66.28282l-.1455-.795Z" transform="translate(-14.17187 -14.17592)"/><path class="b" d="M42.43242,56.69982c-.1572.1845-.3115.3681-.4668.5556L72.991,69.47612l-.1455-.7968Z" transform="translate(-14.17187 -14.17592)"/><path class="b" d="M40.59452,58.93412c-.1494.1866-.3018.3721-.4512.5616l33.4326,13.1689-.1464-.7969Z" transform="translate(-14.17187 -14.17592)"/><path class="b" d="M38.82112,61.19782c-.1436.1895-.2881.3779-.4307.5684L74.15992,75.857l-.1465-.7949Z" transform="translate(-14.17187 -14.17592)"/><path class="b" d="M37.11892,63.48692c-.1406.1914-.2793.3818-.417.5742l38.044,14.9853-.1475-.7959Z" transform="translate(-14.17187 -14.17592)"/><path class="b" d="M35.47932,65.79942c-.1338.1924-.2666.3867-.3985.581l40.2481,15.8545-.1455-.7959Z" transform="translate(-14.17187 -14.17592)"/><path class="b" d="M33.90112,68.14022c-.1259.1963-.2568.3916-.3828.5879l42.3965,16.7012-.1475-.7969Z" transform="translate(-14.17187 -14.17592)"/><path class="b" d="M32.38942,70.50352c-.123.1972-.2451.3945-.3681.5937l44.4765,17.5196-.1465-.7959Z" transform="translate(-14.17187 -14.17592)"/><path class="b" d="M30.93922,72.89212c-.1172.1993-.2363.3985-.3515.5997l46.4961,18.3154-.1465-.7959Z" transform="translate(-14.17187 -14.17592)"/><path class="b" d="M29.54662,75.30522c-.1113.2022-.2236.4034-.3359.6055l48.457,19.0889-.1455-.7969Z" transform="translate(-14.17187 -14.17592)"/><path class="b" d="M28.21752,77.74082c-.1084.2041-.2148.4092-.3212.6123L78.25272,98.189l-.1455-.7969Z" transform="translate(-14.17187 -14.17592)"/><path class="b" d="M26.947,80.20072c-.1025.2051-.2031.4121-.3047.6182l52.1954,20.5596-.1465-.7959Z" transform="translate(-14.17187 -14.17592)"/><path class="b" d="M25.73712,82.68122c-.0977.209-.1924.418-.2901.625l.0176.0078c.0977-.208.1895-.4189.2891-.6269Z" transform="translate(-14.17187 -14.17592)"/><path class="b" d="M24.58472,85.18712c-.0918.209-.1826.4199-.2744.6298l.0059.002c.0918-.209.1924-.415.2861-.625Z" transform="translate(-14.17187 -14.17592)"/><path class="b" d="M23.49392,87.71442c-.0889.2109-.1738.4229-.2598.6358l.0215.0087c.086-.2128.1709-.4257.2598-.6347Z" transform="translate(-14.17187 -14.17592)"/><path class="b" d="M22.45582,90.272c-.0703.1797-.1386.3614-.207.5401.0703-.1787.1494-.3555.2197-.5332Z" transform="translate(-14.17187 -14.17592)"/><path class="b" d="M21.48022,92.84142c-.0771.2158-.1513.4336-.2285.6484l.0235.0098c.0752-.2159.1543-.4317.2324-.6485Z" transform="translate(-14.17187 -14.17592)"/><path class="b" d="M20.56232,95.44492c-.0742.2178-.1426.4375-.2149.6543l.0098.0039c.0732-.2188.1387-.4375.2129-.6543Z" transform="translate(-14.17187 -14.17592)"/><path class="b" d="M19.70582,98.064c-.0693.2207-.1338.4395-.2002.6602l.0196.0078c.0683-.2188.1386-.4365.207-.6563Z" transform="translate(-14.17187 -14.17592)"/><path class="b" d="M18.906,100.71052c-.0625.2207-.124.4434-.1855.6641l.9345.3691-.3877-.8906Z" transform="translate(-14.17187 -14.17592)"/><path class="b" d="M18.17072,103.37652c-.0596.2237-.1172.4463-.1748.669l3.2109,1.2646-.3887-.8906Z" transform="translate(-14.17187 -14.17592)"/><path class="b" d="M17.49,106.06992c-.0537.2246-.1094.4492-.1602.6738l5.4297,2.1387-.3867-.8906Z" transform="translate(-14.17187 -14.17592)"/><path class="b" d="M16.87182,108.78862c-.0488.2266-.0986.4532-.1474.6797l7.5918,2.9903-.3897-.8907Z" transform="translate(-14.17187 -14.17592)"/><path class="b" d="M16.31422,111.52892c-.0429.2275-.0918.457-.1347.6845l9.6875,3.8174-.3858-.8926Z" transform="translate(-14.17187 -14.17592)"/><path class="b" d="M15.81812,114.29352c-.039.2315-.083.4609-.1191.6914l11.7207,4.6182-.3858-.8916Z" transform="translate(-14.17187 -14.17592)"/><path class="b" d="M15.38752,117.08162c-.0362.2324-.0743.4639-.1045.6973l13.6904,5.3935-.3877-.8916Z" transform="translate(-14.17187 -14.17592)"/><path class="b" d="M15.01732,119.89612c-.0273.2333-.0605.4677-.0878.7031l15.5966,6.1426-.3877-.8897Z" transform="translate(-14.17187 -14.17592)"/><path class="b" d="M14.71272,122.73392c-.0215.2373-.0489.4737-.0704.712l17.4346,6.8671-.3857-.8906Z" transform="translate(-14.17187 -14.17592)"/><path class="b" d="M14.47632,125.60112c-.0175.2403-.0381.4766-.0537.7178l19.208,7.5654-.3886-.8916Z" transform="translate(-14.17187 -14.17592)"/><path class="b" d="M14.30642,128.50052c-.0117.2413-.0264.4825-.0371.7237l20.918,8.2402-.3887-.8916Z" transform="translate(-14.17187 -14.17592)"/><path class="b" d="M14.20782,131.41952c-.0049.2432-.0166.4863-.0196.7305l22.5518,8.8818-.3877-.8897Z" transform="translate(-14.17187 -14.17592)"/><path class="b" d="M14.18042,134.36482c0,.248-.0048.4922-.0029.7393l24.1133,9.498-.3877-.8926Z" transform="translate(-14.17187 -14.17592)"/><path class="b" d="M14.22632,137.34722c.0069.2481.0069.4961.0157.7442l25.6035,10.0859-.3877-.8906Z" transform="translate(-14.17187 -14.17592)"/><path class="b" d="M14.34842,140.35412c.0127.249.0215.5019.0361.7539l27.0127,10.6396-.3877-.8916Z" transform="translate(-14.17187 -14.17592)"/><path class="b" d="M14.54862,143.39412c.0195.2529.0381.5078.0576.7607L42.95,155.31992l-.3877-.8916Z" transform="translate(-14.17187 -14.17592)"/><path class="b" d="M14.82982,146.46442q.0411.3852.0831.7705l29.5918,11.6553-.3877-.8897Z" transform="translate(-14.17187 -14.17592)"/><path class="b" d="M15.198,149.566c.0322.2597.0703.5195.1065.7812l30.7519,12.1123-.3877-.8916Z" transform="translate(-14.17187 -14.17592)"/><path class="b" d="M15.65212,152.70662c.042.2656.0918.5273.1358.792l31.8212,12.5342-.3857-.8897Z" transform="translate(-14.17187 -14.17592)"/><path class="b" d="M16.20482,155.88432c.0499.2686.1055.5352.1583.8028l32.8007,12.9199-.3877-.8916Z" transform="translate(-14.17187 -14.17592)"/><path class="b" d="M16.85522,159.10112c.0586.2705.1231.541.1827.8106l33.6787,13.2656-.3877-.8906Z" transform="translate(-14.17187 -14.17592)"/><path class="b" d="M17.60912,162.35892c.0674.2715.1358.5459.2061.8194l34.4531,13.5703-.3877-.8916Z" transform="translate(-14.17187 -14.17592)"/><path class="b" d="M18.47052,165.65392c.0771.2754.1504.5517.2304.83l35.1202,13.8321-.3877-.8897Z" transform="translate(-14.17187 -14.17592)"/><path class="b" d="M19.44412,168.99762c.0869.2813.169.5596.2578.8389l35.6709,14.0517-.3867-.8896Z" transform="translate(-14.17187 -14.17592)"/><path class="b" d="M20.54272,172.39022c.0957.2851.1875.5693.2862.8516l36.0986,14.2197-.3877-.8916Z" transform="translate(-14.17187 -14.17592)"/><path class="b" d="M21.76542,175.83062c.1084.292.2236.5791.3359.8701l36.3789,14.3301-.3877-.8906Z" transform="translate(-14.17187 -14.17592)"/><path class="b" d="M23.14332,179.33552c.1211.2949.249.5898.3721.8848L60.033,194.607l-.3877-.8926Z" transform="translate(-14.17187 -14.17592)"/><path class="b" d="M24.67462,182.899c.1338.2978.2685.5986.4043.8965l36.5068,14.3798-.3867-.8886Z" transform="translate(-14.17187 -14.17592)"/><path class="b" d="M26.37182,186.52892c.1485.3027.292.6103.4424.9121l36.3252,14.3086-.3857-.8907Z" transform="translate(-14.17187 -14.17592)"/><path class="b" d="M28.25172,190.232c.168.3144.3428.6269.5117.9394l35.9307,14.1543-.3857-.8916Z" transform="translate(-14.17187 -14.17592)"/><path class="b" d="M30.35822,194.01622c.1845.3183.3642.6396.5498.956l35.3379,13.9199-.3868-.8906Z" transform="translate(-14.17187 -14.17592)"/><path class="b" d="M32.68732,197.89212c.209.3331.4258.6602.6396.9922l34.4717,13.5782-.3887-.8907Z" transform="translate(-14.17187 -14.17592)"/><path class="b" d="M35.32982,201.89312c.2305.3369.4581.6778.6924,1.0108l33.3291,13.1289-.3877-.8887Z" transform="translate(-14.17187 -14.17592)"/><path class="b" d="M38.30062,206.02692q.3969.5274.8007,1.0527l31.8028,12.5264-.3858-.8887Z" transform="translate(-14.17187 -14.17592)"/><path class="b" d="M41.68042,210.316q.4629.55365.9287,1.1035l29.8477,11.7588-.3867-.8916Z" transform="translate(-14.17187 -14.17592)"/><path class="b" d="M45.60522,214.82572q.5391.58605,1.0821,1.1651l27.3252,10.7636-.3877-.8916Z" transform="translate(-14.17187 -14.17592)"/><path class="b" d="M50.24292,219.60992c.4248.417.8506.836,1.2842,1.2451l24.0381,9.4688-.3877-.8916Z" transform="translate(-14.17187 -14.17592)"/><path class="b" d="M55.89722,224.79642q.82035.7017,1.6504,1.3877l19.5694,7.708-.3887-.8906Z" transform="translate(-14.17187 -14.17592)"/><path class="b" d="M63.37572,230.70372q1.16025.84225,2.337,1.6582l12.957,5.1045-.3867-.8907Z" transform="translate(-14.17187 -14.17592)"/><path class="b" d="M80.93342,241.31692l.0703.0274c-.1123-.0557-.2227-.1074-.334-.1611C80.75762,241.22612,80.84642,241.273,80.93342,241.31692Z" transform="translate(-14.17187 -14.17592)"/><path class="b" d="M75.34842,238.37652c1.5889.8916,3.2022,1.7373,4.8291,2.5547l-.3428-.7871Z" transform="translate(-14.17187 -14.17592)"/><path class="b" d="M167.75372,18.93512a1.48083,1.48083,0,0,0-2.1553-.8496l-.5391.2344q1.3872.375,2.7666.7832Z" transform="translate(-14.17187 -14.17592)"/><path class="b" d="M48.14822,166.03772l10.6133-4.6133a1.48141,1.48141,0,0,0,.8496-2.1543l-33.5762-77.2198a120.30352,120.30352,0,0,0-7.498,19.9913l27.458,63.1484A1.47783,1.47783,0,0,0,48.14822,166.03772Z" transform="translate(-14.17187 -14.17592)"/><path class="b" d="M96.81132,125.50152a1.69949,1.69949,0,0,1,1.1562-2.0312l13.9375-6.0606a1.6994,1.6994,0,0,1,2.2725.543l9.5273,13.7031a1.7036,1.7036,0,0,0,2.2764.5391l10.8281-4.708c1.0713-.4658,1.3291-1.3438.586-2.167l-52.7158-70.5186a1.69965,1.69965,0,0,0-2.2725-.542l-10.5068,4.5694a1.70215,1.70215,0,0,0-1.1563,2.0322l15.6201,86.6494c.0996,1.1025.9151,1.5137,1.9864,1.0479l10.8291-4.709a1.70136,1.70136,0,0,0,1.1543-2.0332Zm-3.667-17.5254-4.8682-23.5058c-.2832-1.5352.8926-2.0479,1.7159-.7461l13.8701,19.5888a1.35464,1.35464,0,0,1-.6944,2.2168l-7.9326,3.4483A1.35033,1.35033,0,0,1,93.14432,107.97612Z" transform="translate(-14.17187 -14.17592)"/><path class="b" d="M150.24682,26.16562l3.003,39.7402c.1299,1.4727-.9434,1.9395-1.9317.8399l-27.0156-29.2989a1.89626,1.89626,0,0,0-2.2305-.4336l-14.1513,6.1524a1.47908,1.47908,0,0,0-.8477,2.1543l34.124,78.4746a1.47468,1.47468,0,0,0,2.1504.8486l10.6153-4.6142a1.482,1.482,0,0,0,.8496-2.1553L133.78792,69.525c-.6045-1.3946.4794-2.1211,1.5761-1.0684l24.7451,26.7187a1.89828,1.89828,0,0,0,2.2295.4317l4.503-1.957a1.8949,1.8949,0,0,0,1.2011-1.9258l-2.6611-36.3203c-.0234-1.5196,1.249-1.8164,1.8565-.4239l21.0224,48.3496a1.47627,1.47627,0,0,0,2.1514.8497l10.6133-4.6143a1.47836,1.47836,0,0,0,.8496-2.1553l-34.0489-78.3066q-1.37985-.40725-2.7666-.7832l-13.6132,5.9199A1.89165,1.89165,0,0,0,150.24682,26.16562Z" transform="translate(-14.17187 -14.17592)"/><path class="b" d="M84.25762,215.95072a1.47828,1.47828,0,0,1,.8476-2.1523l12.3282-5.3604a1.48068,1.48068,0,0,1,2.1543.8467l13.75,31.6289a1.47885,1.47885,0,0,0,2.1533.8467l10.6142-4.6162a1.47549,1.47549,0,0,0,.8477-2.1514l-34.1211-78.4765a1.481,1.481,0,0,0-2.1533-.8496l-10.6143,4.6162a1.48072,1.48072,0,0,0-.8486,2.1543l13.332,30.6611a1.47727,1.47727,0,0,1-.8467,2.1533l-12.33,5.3594a1.47829,1.47829,0,0,1-2.1534-.8467l-13.331-30.6611a1.48106,1.48106,0,0,0-2.1543-.8496l-10.6133,4.6162a1.47869,1.47869,0,0,0-.8496,2.1533l28.3047,65.0957a120.51824,120.51824,0,0,0,19.6084,8.1172,2.16634,2.16634,0,0,0-.1748-.6563Z" transform="translate(-14.17187 -14.17592)"/><path class="b" d="M143.02612,142.08362a2.55163,2.55163,0,0,0-1.54-1.4952l-7.3848-2.9091a2.57428,2.57428,0,0,0-2.1494.0419l-25.3017,11.001a2.5763,2.5763,0,0,0-1.4952,1.544l-2.9072,7.3838a2.56476,2.56476,0,0,0,.041,2.1484l28.7159,66.0391a2.56947,2.56947,0,0,0,1.5419,1.498l7.3829,2.9082a2.56421,2.56421,0,0,0,2.1484-.0449l25.3027-11a2.56251,2.56251,0,0,0,1.4951-1.542l2.9073-7.3838a2.56084,2.56084,0,0,0-.041-2.1484Zm11.4327,66.164a2.55868,2.55868,0,0,1-1.4971,1.541l-8.1475,3.543a2.79339,2.79339,0,0,1-3.6904-1.4551l-21.6758-49.8496a2.79981,2.79981,0,0,1,1.4541-3.6943l8.1475-3.5401a2.55155,2.55155,0,0,1,2.1474-.0439,2.33067,2.33067,0,0,1,1.6504,1.4492l21.6758,49.8516A2.32942,2.32942,0,0,1,154.45882,208.24762Z" transform="translate(-14.17187 -14.17592)"/><path class="b" d="M191.05842,121.20172a2.56613,2.56613,0,0,0-1.5459-1.498l-7.3828-2.9073a2.56383,2.56383,0,0,0-2.1465.0411l-32.0557,13.9384a1.48044,1.48044,0,0,0-.8496,2.1534l34.125,78.4765a1.47744,1.47744,0,0,0,2.1514.8477l10.6132-4.6162a1.4773,1.4773,0,0,0,.8497-2.1514l-12.4952-28.7315a1.48464,1.48464,0,0,1,.8496-2.1562l18.4415-8.0156a2.57255,2.57255,0,0,0,1.496-1.544l2.9073-7.3847a2.56387,2.56387,0,0,0-.042-2.1465Zm-2.3077,34.2735-.0595.1523a2.5634,2.5634,0,0,1-1.4951,1.5439l-9.7569,4.2422a1.47882,1.47882,0,0,1-2.1533-.8476l-8.8115-20.2637a1.4786,1.4786,0,0,1,.8486-2.1533l9.7559-4.2412a2.56433,2.56433,0,0,1,2.1484-.044l.1065-.0459a2.56748,2.56748,0,0,1,1.5439,1.4961l7.832,18.0127A2.5604,2.5604,0,0,1,188.75072,155.47522Z" transform="translate(-14.17187 -14.17592)"/><path class="b" d="M237.76342,172.91562a1.479,1.479,0,0,1-2.1513-.8496l-8.1114-18.6543a1.47471,1.47471,0,0,1,.8497-2.1504l15.8652-6.8994a1.48167,1.48167,0,0,0,.8496-2.1563l-4.4297-10.1836a1.47775,1.47775,0,0,0-2.1523-.8496l-15.8672,6.8994a1.47768,1.47768,0,0,1-2.1533-.8466l-7.5059-17.2608a1.47728,1.47728,0,0,1,.8496-2.1523l22.4043-9.7432a1.48128,1.48128,0,0,0,.8496-2.1533L232.63262,95.73a1.47964,1.47964,0,0,0-2.1543-.8476l-36.0215,15.6631a1.47807,1.47807,0,0,0-.8486,2.1523l34.123,78.4756a1.48068,1.48068,0,0,0,2.1533.8496l11.3819-4.9492a120.68986,120.68986,0,0,0,7.4384-18.9141Z" transform="translate(-14.17187 -14.17592)"/></svg>