<svg xmlns="http://www.w3.org/2000/svg" xmlns:xlink="http://www.w3.org/1999/xlink" width="500" zoomAndPan="magnify" viewBox="0 0 375 374.999991" height="500" preserveAspectRatio="xMidYMid meet" version="1.0"><defs><clipPath id="cb19ef1471"><path d="M 45.890625 88.019531 L 329.390625 88.019531 L 329.390625 286.769531 L 45.890625 286.769531 Z M 45.890625 88.019531 " clip-rule="nonzero"/></clipPath></defs><rect x="-37.5" width="450" fill="#ffffff" y="-37.499999" height="449.999989" fill-opacity="1"/><rect x="-37.5" width="450" fill="#ffffff" y="-37.499999" height="449.999989" fill-opacity="1"/><rect x="-37.5" width="450" fill="#00bf63" y="-37.499999" height="449.999989" fill-opacity="1"/><g clip-path="url(#cb19ef1471)"><path fill="#ffffff" d="M 55.894531 220.46875 L 55.894531 100.144531 C 55.894531 93.460938 61.324219 88.039062 68.027344 88.039062 L 188.53125 88.039062 C 195.230469 88.039062 200.664062 93.460938 200.664062 100.144531 L 200.664062 220.46875 C 200.664062 222.695312 198.851562 224.503906 196.621094 224.503906 L 59.9375 224.503906 C 57.703125 224.503906 55.894531 222.695312 55.894531 220.46875 Z M 153.207031 261.6875 C 153.207031 275.554688 141.941406 286.796875 128.046875 286.796875 C 114.152344 286.796875 102.886719 275.554688 102.886719 261.6875 C 102.886719 247.820312 114.152344 236.578125 128.046875 236.578125 C 141.941406 236.578125 153.207031 247.820312 153.207031 261.6875 Z M 140.625 261.6875 C 140.625 254.753906 134.992188 249.132812 128.046875 249.132812 C 121.097656 249.132812 115.464844 254.753906 115.464844 261.6875 C 115.464844 268.621094 121.097656 274.242188 128.046875 274.242188 C 134.992188 274.242188 140.625 268.621094 140.625 261.6875 Z M 106.375 236.578125 L 49.996094 236.578125 C 47.761719 236.578125 45.953125 238.386719 45.953125 240.613281 L 45.953125 252.855469 C 45.953125 255.085938 47.761719 256.894531 49.996094 256.894531 L 95.1875 256.894531 C 96.367188 248.8125 100.453125 241.675781 106.375 236.578125 Z M 284.851562 261.6875 C 284.851562 275.554688 273.585938 286.796875 259.691406 286.796875 C 245.792969 286.796875 234.53125 275.554688 234.53125 261.6875 C 234.53125 247.820312 245.792969 236.578125 259.691406 236.578125 C 273.585938 236.578125 284.851562 247.820312 284.851562 261.6875 Z M 272.269531 261.6875 C 272.269531 254.753906 266.636719 249.132812 259.691406 249.132812 C 252.742188 249.132812 247.109375 254.753906 247.109375 261.6875 C 247.109375 268.621094 252.742188 274.242188 259.691406 274.242188 C 266.636719 274.242188 272.269531 268.621094 272.269531 261.6875 Z M 329.332031 240.613281 L 329.332031 252.855469 C 329.332031 255.085938 327.523438 256.894531 325.289062 256.894531 L 292.550781 256.894531 C 290.207031 240.867188 276.386719 228.507812 259.691406 228.507812 C 242.992188 228.507812 229.171875 240.867188 226.828125 256.894531 L 160.90625 256.894531 C 159.726562 248.8125 155.640625 241.675781 149.71875 236.578125 L 212.222656 236.578125 L 212.222656 121.148438 C 212.222656 116.691406 215.84375 113.078125 220.3125 113.078125 L 258.488281 113.078125 C 269.234375 113.078125 279.28125 118.40625 285.296875 127.296875 L 309.90625 163.675781 C 313.515625 169.011719 315.445312 175.300781 315.445312 181.738281 L 315.445312 236.578125 L 325.289062 236.578125 C 327.519531 236.578125 329.332031 238.382812 329.332031 240.613281 Z M 288.308594 164.605469 L 268.628906 136.699219 C 267.871094 135.625 266.640625 134.988281 265.324219 134.988281 L 234.625 134.988281 C 232.394531 134.988281 230.582031 136.792969 230.582031 139.023438 L 230.582031 166.929688 C 230.582031 169.160156 232.390625 170.964844 234.625 170.964844 L 285.003906 170.964844 C 288.28125 170.964844 290.195312 167.28125 288.3125 164.605469 Z M 288.308594 164.605469 " fill-opacity="1" fill-rule="nonzero"/></g></svg>