<svg xmlns="http://www.w3.org/2000/svg" xmlns:xlink="http://www.w3.org/1999/xlink" width="500" zoomAndPan="magnify" viewBox="0 0 375 374.999991" height="500" preserveAspectRatio="xMidYMid meet" version="1.0"><defs><clipPath id="b33e96ef3a"><path d="M 289 104 L 326.75 104 L 326.75 142 L 289 142 Z M 289 104 " clip-rule="nonzero"/></clipPath><clipPath id="bf09bbf26c"><path d="M 48.5 257 L 86 257 L 86 295 L 48.5 295 Z M 48.5 257 " clip-rule="nonzero"/></clipPath><clipPath id="bdbb7f2c0d"><path d="M 238 289 L 276 289 L 276 326.75 L 238 326.75 Z M 238 289 " clip-rule="nonzero"/></clipPath><clipPath id="2712e144e2"><path d="M 108 224 L 211 224 L 211 326.75 L 108 326.75 Z M 108 224 " clip-rule="nonzero"/></clipPath><clipPath id="57cf634a28"><path d="M 131 289 L 188 289 L 188 326.75 L 131 326.75 Z M 131 289 " clip-rule="nonzero"/></clipPath><clipPath id="e95b339db2"><path d="M 48.5 108 L 151 108 L 151 211 L 48.5 211 Z M 48.5 108 " clip-rule="nonzero"/></clipPath><clipPath id="0fbdc0cba6"><path d="M 159 48.5 L 262 48.5 L 262 151 L 159 151 Z M 159 48.5 " clip-rule="nonzero"/></clipPath><clipPath id="9d284139af"><path d="M 80 48.5 L 119 48.5 L 119 86 L 80 86 Z M 80 48.5 " clip-rule="nonzero"/></clipPath></defs><rect x="-37.5" width="450" fill="#ffffff" y="-37.499999" height="449.999989" fill-opacity="1"/><rect x="-37.5" width="450" fill="#000000" y="-37.499999" height="449.999989" fill-opacity="1"/><g clip-path="url(#b33e96ef3a)"><path fill="#ffffff" d="M 308.199219 141.25 C 297.96875 141.25 289.648438 132.929688 289.648438 122.699219 C 289.648438 112.46875 297.96875 104.148438 308.199219 104.148438 C 318.429688 104.148438 326.75 112.46875 326.75 122.699219 C 326.75 132.929688 318.429688 141.25 308.199219 141.25 Z M 308.199219 113.421875 C 303.082031 113.421875 298.921875 117.582031 298.921875 122.699219 C 298.921875 127.8125 303.082031 131.972656 308.199219 131.972656 C 313.3125 131.972656 317.472656 127.8125 317.472656 122.699219 C 317.472656 117.582031 313.3125 113.421875 308.199219 113.421875 Z M 308.199219 113.421875 " fill-opacity="1" fill-rule="nonzero"/></g><g clip-path="url(#bf09bbf26c)"><path fill="#ffffff" d="M 67.046875 294.285156 C 56.816406 294.285156 48.5 285.964844 48.5 275.734375 C 48.5 265.503906 56.816406 257.1875 67.046875 257.1875 C 77.277344 257.1875 85.597656 265.503906 85.597656 275.734375 C 85.597656 285.964844 77.277344 294.285156 67.046875 294.285156 Z M 67.046875 266.460938 C 61.933594 266.460938 57.773438 270.621094 57.773438 275.734375 C 57.773438 280.851562 61.933594 285.011719 67.046875 285.011719 C 72.164062 285.011719 76.324219 280.851562 76.324219 275.734375 C 76.324219 270.621094 72.164062 266.460938 67.046875 266.460938 Z M 67.046875 266.460938 " fill-opacity="1" fill-rule="nonzero"/></g><path fill="#ffffff" d="M 297.1875 118.828125 C 296.511719 118.828125 295.824219 118.679688 295.175781 118.363281 L 255.167969 99.046875 C 252.863281 97.933594 251.894531 95.160156 253.007812 92.855469 C 254.121094 90.550781 256.890625 89.578125 259.199219 90.695312 L 299.207031 110.011719 C 301.511719 111.125 302.480469 113.898438 301.367188 116.203125 C 300.570312 117.863281 298.914062 118.828125 297.1875 118.828125 Z M 297.1875 118.828125 " fill-opacity="1" fill-rule="nonzero"/><g clip-path="url(#bdbb7f2c0d)"><path fill="#ffffff" d="M 257.1875 326.75 C 246.957031 326.75 238.636719 318.429688 238.636719 308.199219 C 238.636719 297.96875 246.957031 289.648438 257.1875 289.648438 C 267.417969 289.648438 275.734375 297.96875 275.734375 308.199219 C 275.734375 318.429688 267.417969 326.75 257.1875 326.75 Z M 257.1875 298.921875 C 252.070312 298.921875 247.910156 303.082031 247.910156 308.199219 C 247.910156 313.3125 252.070312 317.472656 257.1875 317.472656 C 262.300781 317.472656 266.460938 313.3125 266.460938 308.199219 C 266.460938 303.082031 262.300781 298.921875 257.1875 298.921875 Z M 257.1875 298.921875 " fill-opacity="1" fill-rule="nonzero"/></g><path fill="#ffffff" d="M 246.175781 304.328125 C 245.5 304.328125 244.8125 304.179688 244.164062 303.863281 L 204.15625 284.546875 C 201.851562 283.433594 200.882812 280.660156 201.996094 278.355469 C 203.109375 276.046875 205.875 275.078125 208.1875 276.195312 L 248.195312 295.511719 C 250.5 296.625 251.46875 299.398438 250.355469 301.703125 C 249.558594 303.363281 247.902344 304.328125 246.175781 304.328125 Z M 246.175781 304.328125 " fill-opacity="1" fill-rule="nonzero"/><path fill="#ffffff" d="M 187.625 210.8125 C 177.394531 210.8125 169.074219 202.492188 169.074219 192.261719 C 169.074219 182.03125 177.394531 173.710938 187.625 173.710938 C 197.855469 173.710938 206.171875 182.03125 206.171875 192.261719 C 206.171875 202.492188 197.855469 210.8125 187.625 210.8125 Z M 187.625 182.984375 C 182.507812 182.984375 178.347656 187.144531 178.347656 192.261719 C 178.347656 197.375 182.507812 201.535156 187.625 201.535156 C 192.738281 201.535156 196.898438 197.375 196.898438 192.261719 C 196.898438 187.144531 192.738281 182.984375 187.625 182.984375 Z M 187.625 182.984375 " fill-opacity="1" fill-rule="nonzero"/><path fill="#ffffff" d="M 176.613281 188.390625 C 175.617188 188.390625 174.617188 188.070312 173.765625 187.410156 L 143.035156 163.457031 C 141.011719 161.878906 140.65625 158.96875 142.226562 156.945312 C 143.804688 154.925781 146.714844 154.578125 148.738281 156.140625 L 179.472656 180.09375 C 181.492188 181.667969 181.851562 184.582031 180.277344 186.601562 C 179.359375 187.777344 177.996094 188.390625 176.613281 188.390625 Z M 176.613281 188.390625 " fill-opacity="1" fill-rule="nonzero"/><path fill="#ffffff" d="M 271.097656 271.097656 C 242.972656 271.097656 220.085938 248.210938 220.085938 220.085938 C 220.085938 191.960938 242.972656 169.074219 271.097656 169.074219 C 299.226562 169.074219 322.109375 191.960938 322.109375 220.085938 C 322.109375 248.210938 299.226562 271.097656 271.097656 271.097656 Z M 271.097656 178.347656 C 248.082031 178.347656 229.359375 197.070312 229.359375 220.085938 C 229.359375 243.101562 248.082031 261.824219 271.097656 261.824219 C 294.113281 261.824219 312.835938 243.101562 312.835938 220.085938 C 312.835938 197.070312 294.113281 178.347656 271.097656 178.347656 Z M 271.097656 178.347656 " fill-opacity="1" fill-rule="nonzero"/><path fill="#ffffff" d="M 271.097656 224.722656 C 260.867188 224.722656 252.546875 216.402344 252.546875 206.171875 C 252.546875 195.941406 260.867188 187.625 271.097656 187.625 C 281.328125 187.625 289.648438 195.941406 289.648438 206.171875 C 289.648438 216.402344 281.328125 224.722656 271.097656 224.722656 Z M 271.097656 196.898438 C 265.984375 196.898438 261.824219 201.058594 261.824219 206.171875 C 261.824219 211.289062 265.984375 215.449219 271.097656 215.449219 C 276.214844 215.449219 280.375 211.289062 280.375 206.171875 C 280.375 201.058594 276.214844 196.898438 271.097656 196.898438 Z M 271.097656 196.898438 " fill-opacity="1" fill-rule="nonzero"/><path fill="#ffffff" d="M 271.097656 271.097656 C 262.179688 271.097656 253.359375 268.71875 245.585938 264.222656 C 244.15625 263.390625 243.273438 261.859375 243.273438 260.207031 L 243.273438 247.980469 C 243.273438 240.273438 249.71875 234 257.644531 234 L 284.550781 234 C 292.476562 234 298.921875 240.273438 298.921875 247.984375 L 298.921875 260.210938 C 298.921875 261.859375 298.042969 263.394531 296.609375 264.222656 C 288.835938 268.71875 280.015625 271.097656 271.097656 271.097656 Z M 252.546875 257.441406 C 264.089844 263.191406 278.105469 263.191406 289.648438 257.441406 L 289.648438 247.984375 C 289.648438 245.386719 287.363281 243.273438 284.550781 243.273438 L 257.644531 243.273438 C 254.835938 243.273438 252.546875 245.386719 252.546875 247.984375 Z M 252.546875 257.441406 " fill-opacity="1" fill-rule="nonzero"/><g clip-path="url(#2712e144e2)"><path fill="#ffffff" d="M 159.796875 326.75 C 131.671875 326.75 108.785156 303.863281 108.785156 275.734375 C 108.785156 247.609375 131.671875 224.722656 159.796875 224.722656 C 187.925781 224.722656 210.8125 247.609375 210.8125 275.734375 C 210.8125 303.863281 187.925781 326.75 159.796875 326.75 Z M 159.796875 234 C 136.78125 234 118.0625 252.71875 118.0625 275.734375 C 118.0625 298.753906 136.78125 317.472656 159.796875 317.472656 C 182.816406 317.472656 201.535156 298.753906 201.535156 275.734375 C 201.535156 252.71875 182.816406 234 159.796875 234 Z M 159.796875 234 " fill-opacity="1" fill-rule="nonzero"/></g><path fill="#ffffff" d="M 159.796875 280.375 C 149.566406 280.375 141.25 272.054688 141.25 261.824219 C 141.25 251.59375 149.566406 243.273438 159.796875 243.273438 C 170.027344 243.273438 178.347656 251.59375 178.347656 261.824219 C 178.347656 272.054688 170.027344 280.375 159.796875 280.375 Z M 159.796875 252.546875 C 154.683594 252.546875 150.523438 256.707031 150.523438 261.824219 C 150.523438 266.9375 154.683594 271.097656 159.796875 271.097656 C 164.914062 271.097656 169.074219 266.9375 169.074219 261.824219 C 169.074219 256.707031 164.914062 252.546875 159.796875 252.546875 Z M 159.796875 252.546875 " fill-opacity="1" fill-rule="nonzero"/><g clip-path="url(#57cf634a28)"><path fill="#ffffff" d="M 159.796875 326.75 C 150.878906 326.75 142.058594 324.371094 134.289062 319.871094 C 132.855469 319.042969 131.972656 317.511719 131.972656 315.855469 L 131.972656 303.628906 C 131.972656 295.921875 138.417969 289.648438 146.34375 289.648438 L 173.253906 289.648438 C 181.175781 289.648438 187.625 295.921875 187.625 303.636719 L 187.625 315.859375 C 187.625 317.511719 186.742188 319.046875 185.308594 319.871094 C 177.535156 324.371094 168.714844 326.75 159.796875 326.75 Z M 141.25 313.089844 C 152.792969 318.839844 166.804688 318.839844 178.347656 313.089844 L 178.347656 303.636719 C 178.347656 301.039062 176.0625 298.921875 173.253906 298.921875 L 146.34375 298.921875 C 143.535156 298.921875 141.25 301.039062 141.25 303.636719 Z M 141.25 313.089844 " fill-opacity="1" fill-rule="nonzero"/></g><g clip-path="url(#e95b339db2)"><path fill="#ffffff" d="M 99.511719 210.8125 C 71.382812 210.8125 48.5 187.925781 48.5 159.796875 C 48.5 131.671875 71.382812 108.785156 99.511719 108.785156 C 127.636719 108.785156 150.523438 131.671875 150.523438 159.796875 C 150.523438 187.925781 127.636719 210.8125 99.511719 210.8125 Z M 99.511719 118.0625 C 76.496094 118.0625 57.773438 136.78125 57.773438 159.796875 C 57.773438 182.816406 76.496094 201.535156 99.511719 201.535156 C 122.527344 201.535156 141.25 182.816406 141.25 159.796875 C 141.25 136.78125 122.527344 118.0625 99.511719 118.0625 Z M 99.511719 118.0625 " fill-opacity="1" fill-rule="nonzero"/></g><path fill="#ffffff" d="M 99.511719 164.4375 C 89.28125 164.4375 80.960938 156.117188 80.960938 145.886719 C 80.960938 135.65625 89.28125 127.335938 99.511719 127.335938 C 109.742188 127.335938 118.0625 135.65625 118.0625 145.886719 C 118.0625 156.117188 109.742188 164.4375 99.511719 164.4375 Z M 99.511719 136.609375 C 94.394531 136.609375 90.234375 140.769531 90.234375 145.886719 C 90.234375 151 94.394531 155.160156 99.511719 155.160156 C 104.625 155.160156 108.785156 151 108.785156 145.886719 C 108.785156 140.769531 104.625 136.609375 99.511719 136.609375 Z M 99.511719 136.609375 " fill-opacity="1" fill-rule="nonzero"/><path fill="#ffffff" d="M 99.511719 210.8125 C 90.59375 210.8125 81.773438 208.433594 74 203.933594 C 72.566406 203.105469 71.6875 201.574219 71.6875 199.917969 L 71.6875 187.691406 C 71.6875 179.984375 78.132812 173.710938 86.058594 173.710938 L 112.964844 173.710938 C 120.890625 173.710938 127.335938 179.984375 127.335938 187.699219 L 127.335938 199.921875 C 127.335938 201.574219 126.453125 203.109375 125.023438 203.933594 C 117.25 208.433594 108.429688 210.8125 99.511719 210.8125 Z M 80.960938 197.152344 C 92.503906 202.902344 106.519531 202.902344 118.0625 197.152344 L 118.0625 187.699219 C 118.0625 185.101562 115.773438 182.984375 112.964844 182.984375 L 86.058594 182.984375 C 83.246094 182.984375 80.960938 185.101562 80.960938 187.699219 Z M 80.960938 197.152344 " fill-opacity="1" fill-rule="nonzero"/><g clip-path="url(#0fbdc0cba6)"><path fill="#ffffff" d="M 210.8125 150.523438 C 182.683594 150.523438 159.796875 127.636719 159.796875 99.511719 C 159.796875 71.382812 182.683594 48.5 210.8125 48.5 C 238.9375 48.5 261.824219 71.382812 261.824219 99.511719 C 261.824219 127.636719 238.9375 150.523438 210.8125 150.523438 Z M 210.8125 57.773438 C 187.796875 57.773438 169.074219 76.496094 169.074219 99.511719 C 169.074219 122.527344 187.796875 141.25 210.8125 141.25 C 233.828125 141.25 252.546875 122.527344 252.546875 99.511719 C 252.546875 76.496094 233.828125 57.773438 210.8125 57.773438 Z M 210.8125 57.773438 " fill-opacity="1" fill-rule="nonzero"/></g><path fill="#ffffff" d="M 210.8125 104.148438 C 200.582031 104.148438 192.261719 95.828125 192.261719 85.597656 C 192.261719 75.367188 200.582031 67.046875 210.8125 67.046875 C 221.042969 67.046875 229.359375 75.367188 229.359375 85.597656 C 229.359375 95.828125 221.042969 104.148438 210.8125 104.148438 Z M 210.8125 76.324219 C 205.695312 76.324219 201.535156 80.484375 201.535156 85.597656 C 201.535156 90.714844 205.695312 94.875 210.8125 94.875 C 215.925781 94.875 220.085938 90.714844 220.085938 85.597656 C 220.085938 80.484375 215.925781 76.324219 210.8125 76.324219 Z M 210.8125 76.324219 " fill-opacity="1" fill-rule="nonzero"/><path fill="#ffffff" d="M 210.8125 150.523438 C 201.894531 150.523438 193.074219 148.144531 185.300781 143.644531 C 183.867188 142.816406 182.984375 141.285156 182.984375 139.628906 L 182.984375 127.40625 C 182.984375 119.699219 189.433594 113.421875 197.359375 113.421875 L 224.265625 113.421875 C 232.191406 113.421875 238.636719 119.699219 238.636719 127.410156 L 238.636719 139.632812 C 238.636719 141.285156 237.753906 142.820312 236.320312 143.644531 C 228.550781 148.144531 219.730469 150.523438 210.8125 150.523438 Z M 192.261719 136.867188 C 203.804688 142.617188 217.816406 142.617188 229.359375 136.867188 L 229.359375 127.410156 C 229.359375 124.8125 227.074219 122.699219 224.265625 122.699219 L 197.359375 122.699219 C 194.546875 122.699219 192.261719 124.8125 192.261719 127.410156 Z M 192.261719 136.867188 " fill-opacity="1" fill-rule="nonzero"/><path fill="#ffffff" d="M 132.304688 131.648438 C 130.996094 131.648438 129.695312 131.097656 128.777344 130.027344 C 127.113281 128.078125 127.339844 125.152344 129.289062 123.488281 L 161.425781 95.988281 C 163.375 94.320312 166.300781 94.554688 167.964844 96.492188 C 169.628906 98.441406 169.402344 101.367188 167.457031 103.03125 L 135.316406 130.53125 C 134.441406 131.28125 133.371094 131.648438 132.304688 131.648438 Z M 132.304688 131.648438 " fill-opacity="1" fill-rule="nonzero"/><path fill="#ffffff" d="M 266.464844 178.347656 C 265.054688 178.347656 263.664062 177.707031 262.75 176.492188 L 234.925781 139.394531 C 233.390625 137.347656 233.804688 134.441406 235.855469 132.90625 C 237.902344 131.375 240.8125 131.777344 242.347656 133.832031 L 270.171875 170.933594 C 271.707031 172.976562 271.292969 175.886719 269.242188 177.421875 C 268.410156 178.046875 267.429688 178.347656 266.464844 178.347656 Z M 266.464844 178.347656 " fill-opacity="1" fill-rule="nonzero"/><path fill="#ffffff" d="M 202.5 262.265625 C 201.089844 262.265625 199.699219 261.625 198.785156 260.410156 C 197.25 258.363281 197.664062 255.457031 199.714844 253.921875 L 225.617188 234.496094 C 227.667969 232.960938 230.574219 233.371094 232.109375 235.421875 C 233.644531 237.46875 233.234375 240.375 231.183594 241.910156 L 205.277344 261.335938 C 204.445312 261.957031 203.46875 262.265625 202.5 262.265625 Z M 202.5 262.265625 " fill-opacity="1" fill-rule="nonzero"/><path fill="#ffffff" d="M 113.421875 280.375 L 80.960938 280.375 C 78.402344 280.375 76.324219 278.300781 76.324219 275.734375 C 76.324219 273.171875 78.402344 271.097656 80.960938 271.097656 L 113.421875 271.097656 C 115.984375 271.097656 118.0625 273.171875 118.0625 275.734375 C 118.0625 278.300781 115.984375 280.375 113.421875 280.375 Z M 113.421875 280.375 " fill-opacity="1" fill-rule="nonzero"/><g clip-path="url(#9d284139af)"><path fill="#ffffff" d="M 99.511719 85.597656 C 89.28125 85.597656 80.960938 77.277344 80.960938 67.046875 C 80.960938 56.816406 89.28125 48.5 99.511719 48.5 C 109.742188 48.5 118.0625 56.816406 118.0625 67.046875 C 118.0625 77.277344 109.742188 85.597656 99.511719 85.597656 Z M 99.511719 57.773438 C 94.394531 57.773438 90.234375 61.933594 90.234375 67.046875 C 90.234375 72.164062 94.394531 76.324219 99.511719 76.324219 C 104.625 76.324219 108.785156 72.164062 108.785156 67.046875 C 108.785156 61.933594 104.625 57.773438 99.511719 57.773438 Z M 99.511719 57.773438 " fill-opacity="1" fill-rule="nonzero"/></g><path fill="#ffffff" d="M 99.511719 118.0625 C 96.953125 118.0625 94.875 115.988281 94.875 113.421875 L 94.875 80.960938 C 94.875 78.398438 96.953125 76.324219 99.511719 76.324219 C 102.070312 76.324219 104.148438 78.398438 104.148438 80.960938 L 104.148438 113.421875 C 104.148438 115.988281 102.070312 118.0625 99.511719 118.0625 Z M 99.511719 118.0625 " fill-opacity="1" fill-rule="nonzero"/></svg>