<svg xmlns="http://www.w3.org/2000/svg" xmlns:xlink="http://www.w3.org/1999/xlink" width="500" zoomAndPan="magnify" viewBox="0 0 375 374.999991" height="500" preserveAspectRatio="xMidYMid meet" version="1.0"><defs><g/><clipPath id="5cd445d3ad"><path d="M 119 160 L 256 160 L 256 221 L 119 221 Z M 119 160 " clip-rule="nonzero"/></clipPath><clipPath id="08a7e9682c"><path d="M 255.214844 220.523438 L 119.46875 220.230469 L 119.59375 160.980469 L 255.34375 161.273438 Z M 255.214844 220.523438 " clip-rule="nonzero"/></clipPath><clipPath id="9225a1f4d6"><path d="M 255.214844 220.523438 L 119.46875 220.230469 L 119.59375 160.980469 L 255.34375 161.273438 Z M 255.214844 220.523438 " clip-rule="nonzero"/></clipPath><clipPath id="0db8b11c86"><path d="M 119 119 L 256 119 L 256 180 L 119 180 Z M 119 119 " clip-rule="nonzero"/></clipPath><clipPath id="b49f5f9048"><path d="M 255.214844 179.277344 L 119.46875 178.984375 L 119.59375 119.734375 L 255.34375 120.027344 Z M 255.214844 179.277344 " clip-rule="nonzero"/></clipPath><clipPath id="bcac8ebafc"><path d="M 255.214844 179.277344 L 119.46875 178.984375 L 119.59375 119.734375 L 255.34375 120.027344 Z M 255.214844 179.277344 " clip-rule="nonzero"/></clipPath><clipPath id="ca5f917f9c"><path d="M 119 101 L 256 101 L 256 161 L 119 161 Z M 119 101 " clip-rule="nonzero"/></clipPath><clipPath id="6fe70d877d"><path d="M 255.214844 160.921875 L 119.46875 160.632812 L 119.59375 101.382812 L 255.34375 101.671875 Z M 255.214844 160.921875 " clip-rule="nonzero"/></clipPath><clipPath id="a71f8364b1"><path d="M 255.214844 160.921875 L 119.46875 160.632812 L 119.59375 101.382812 L 255.34375 101.671875 Z M 255.214844 160.921875 " clip-rule="nonzero"/></clipPath><clipPath id="fbdf8f2703"><path d="M 119 89 L 256 89 L 256 150 L 119 150 Z M 119 89 " clip-rule="nonzero"/></clipPath><clipPath id="f5b012fab3"><path d="M 255.214844 149.476562 L 119.46875 149.183594 L 119.59375 89.933594 L 255.34375 90.226562 Z M 255.214844 149.476562 " clip-rule="nonzero"/></clipPath><clipPath id="6c9cd07dbf"><path d="M 255.214844 149.476562 L 119.46875 149.183594 L 119.59375 89.933594 L 255.34375 90.226562 Z M 255.214844 149.476562 " clip-rule="nonzero"/></clipPath></defs><g clip-path="url(#5cd445d3ad)"><g clip-path="url(#08a7e9682c)"><g clip-path="url(#9225a1f4d6)"><path fill="#5271ff" d="M 255.34375 161.214844 L 255.289062 186.632812 L 187.4375 220.378906 L 119.726562 186.339844 L 119.78125 160.921875 L 187.488281 194.960938 Z M 255.34375 161.214844 " fill-opacity="1" fill-rule="nonzero"/></g></g></g><g clip-path="url(#0db8b11c86)"><g clip-path="url(#b49f5f9048)"><g clip-path="url(#bcac8ebafc)"><path fill="#5271ff" d="M 255.34375 119.96875 L 255.289062 145.386719 L 187.4375 179.128906 L 119.726562 145.09375 L 119.78125 119.675781 L 187.488281 153.710938 Z M 255.34375 119.96875 " fill-opacity="1" fill-rule="nonzero"/></g></g></g><g clip-path="url(#ca5f917f9c)"><g clip-path="url(#6fe70d877d)"><g clip-path="url(#a71f8364b1)"><path fill="#5271ff" d="M 255.34375 101.613281 L 255.289062 127.03125 L 187.4375 160.777344 L 119.726562 126.742188 L 119.78125 101.324219 L 187.488281 135.359375 Z M 255.34375 101.613281 " fill-opacity="1" fill-rule="nonzero"/></g></g></g><g clip-path="url(#fbdf8f2703)"><g clip-path="url(#f5b012fab3)"><g clip-path="url(#6c9cd07dbf)"><path fill="#5271ff" d="M 255.34375 90.167969 L 255.289062 115.585938 L 187.4375 149.332031 L 119.726562 115.292969 L 119.78125 89.875 L 187.488281 123.914062 Z M 255.34375 90.167969 " fill-opacity="1" fill-rule="nonzero"/></g></g></g><g fill="#5271ff" fill-opacity="1"><g transform="translate(37.500002, 296.069139)"><g><path d="M 23.609375 0 L 15.8125 -14.78125 L 12.078125 -14.78125 L 12.078125 0 L 4.328125 0 L 4.328125 -38.71875 L 19.609375 -38.71875 C 21.921875 -38.71875 23.878906 -38.238281 25.484375 -37.28125 C 27.085938 -36.320312 28.335938 -35.078125 29.234375 -33.546875 C 30.140625 -32.015625 30.703125 -30.351562 30.921875 -28.5625 C 31.140625 -26.78125 31.003906 -25.03125 30.515625 -23.3125 C 30.023438 -21.59375 29.191406 -20.070312 28.015625 -18.75 C 26.847656 -17.4375 25.304688 -16.507812 23.390625 -15.96875 L 32.390625 0 Z M 12.078125 -22.3125 L 18.90625 -22.3125 C 19.945312 -22.3125 20.78125 -22.597656 21.40625 -23.171875 C 22.039062 -23.753906 22.46875 -24.476562 22.6875 -25.34375 C 22.90625 -26.207031 22.90625 -27.070312 22.6875 -27.9375 C 22.46875 -28.8125 22.039062 -29.535156 21.40625 -30.109375 C 20.78125 -30.691406 19.945312 -30.984375 18.90625 -30.984375 L 12.078125 -30.984375 Z M 12.078125 -22.3125 "/></g></g></g><g fill="#5271ff" fill-opacity="1"><g transform="translate(70.6927, 296.069139)"><g><path d="M 0.859375 0 L 17.171875 -40.125 L 17.984375 -40.125 L 34.28125 0 L 25.5625 0 L 23.984375 -4.171875 L 11.15625 -4.171875 L 9.640625 0 Z M 13.96875 -11.421875 L 21.125 -11.421875 L 17.59375 -21.5 Z M 13.96875 -11.421875 "/></g></g></g><g fill="#5271ff" fill-opacity="1"><g transform="translate(106.0513, 296.069139)"><g><path d="M 12.078125 -21.0625 L 12.078125 0 L 4.328125 0 L 4.328125 -39.53125 L 6.390625 -39.53125 L 25.9375 -16.78125 L 25.9375 -38.671875 L 33.734375 -38.671875 L 33.734375 0.8125 L 31.6875 0.8125 Z M 12.078125 -21.0625 "/></g></g></g><g fill="#5271ff" fill-opacity="1"><g transform="translate(144.171454, 296.069139)"><g><path d="M 4.328125 0 L 4.328125 -38.71875 L 12.078125 -38.71875 L 12.078125 -23.28125 L 21.828125 -38.71875 L 30.875 -38.71875 L 18.3125 -19.609375 L 31.953125 0 L 22.359375 0 L 12.078125 -15.15625 L 12.078125 0 Z M 4.328125 0 "/></g></g></g><g fill="#5271ff" fill-opacity="1"><g transform="translate(176.876824, 296.069139)"><g><path d="M 23.671875 -30.984375 L 12.078125 -30.984375 L 12.078125 -23.234375 L 21.9375 -23.234375 L 21.9375 -15.484375 L 12.078125 -15.484375 L 12.078125 0 L 4.328125 0 L 4.328125 -38.71875 L 23.671875 -38.71875 Z M 23.671875 -30.984375 "/></g></g></g><g fill="#5271ff" fill-opacity="1"><g transform="translate(202.597092, 296.069139)"><g><path d="M 22.96875 0.546875 C 19.644531 0.546875 16.726562 -0.0078125 14.21875 -1.125 C 11.707031 -2.25 9.617188 -3.757812 7.953125 -5.65625 C 6.296875 -7.550781 5.050781 -9.691406 4.21875 -12.078125 C 3.394531 -14.460938 2.984375 -16.90625 2.984375 -19.40625 C 2.984375 -21.914062 3.394531 -24.363281 4.21875 -26.75 C 5.050781 -29.132812 6.296875 -31.273438 7.953125 -33.171875 C 9.617188 -35.066406 11.707031 -36.570312 14.21875 -37.6875 C 16.726562 -38.8125 19.644531 -39.375 22.96875 -39.375 C 26.28125 -39.375 29.191406 -38.8125 31.703125 -37.6875 C 34.210938 -36.570312 36.296875 -35.066406 37.953125 -33.171875 C 39.617188 -31.273438 40.867188 -29.132812 41.703125 -26.75 C 42.535156 -24.363281 42.953125 -21.914062 42.953125 -19.40625 C 42.953125 -16.90625 42.535156 -14.460938 41.703125 -12.078125 C 40.867188 -9.691406 39.617188 -7.550781 37.953125 -5.65625 C 36.296875 -3.757812 34.210938 -2.25 31.703125 -1.125 C 29.191406 -0.0078125 26.28125 0.546875 22.96875 0.546875 Z M 22.96875 -7.46875 C 25.164062 -7.46875 27.054688 -7.898438 28.640625 -8.765625 C 30.234375 -9.640625 31.5 -10.785156 32.4375 -12.203125 C 33.375 -13.628906 34.003906 -15.191406 34.328125 -16.890625 C 34.660156 -18.585938 34.660156 -20.285156 34.328125 -21.984375 C 34.003906 -23.679688 33.375 -25.242188 32.4375 -26.671875 C 31.5 -28.097656 30.234375 -29.242188 28.640625 -30.109375 C 27.054688 -30.972656 25.164062 -31.40625 22.96875 -31.40625 C 20.757812 -31.40625 18.859375 -30.972656 17.265625 -30.109375 C 15.679688 -29.242188 14.421875 -28.097656 13.484375 -26.671875 C 12.546875 -25.242188 11.914062 -23.679688 11.59375 -21.984375 C 11.269531 -20.285156 11.269531 -18.585938 11.59375 -16.890625 C 11.914062 -15.191406 12.546875 -13.628906 13.484375 -12.203125 C 14.421875 -10.785156 15.679688 -9.640625 17.265625 -8.765625 C 18.859375 -7.898438 20.757812 -7.46875 22.96875 -7.46875 Z M 22.96875 -7.46875 "/></g></g></g><g fill="#5271ff" fill-opacity="1"><g transform="translate(248.460401, 296.069139)"><g><path d="M 4.328125 -38.71875 L 12.078125 -38.71875 L 12.078125 -7.75 L 24.375 -7.75 L 24.375 0 L 4.328125 0 Z M 4.328125 -38.71875 "/></g></g></g><g fill="#5271ff" fill-opacity="1"><g transform="translate(275.155329, 296.069139)"><g><path d="M 12.078125 0 L 4.328125 0 L 4.328125 -38.71875 L 12.078125 -38.71875 Z M 12.078125 0 "/></g></g></g><g fill="#5271ff" fill-opacity="1"><g transform="translate(291.616316, 296.069139)"><g><path d="M 22.96875 0.546875 C 19.644531 0.546875 16.726562 -0.0078125 14.21875 -1.125 C 11.707031 -2.25 9.617188 -3.757812 7.953125 -5.65625 C 6.296875 -7.550781 5.050781 -9.691406 4.21875 -12.078125 C 3.394531 -14.460938 2.984375 -16.90625 2.984375 -19.40625 C 2.984375 -21.914062 3.394531 -24.363281 4.21875 -26.75 C 5.050781 -29.132812 6.296875 -31.273438 7.953125 -33.171875 C 9.617188 -35.066406 11.707031 -36.570312 14.21875 -37.6875 C 16.726562 -38.8125 19.644531 -39.375 22.96875 -39.375 C 26.28125 -39.375 29.191406 -38.8125 31.703125 -37.6875 C 34.210938 -36.570312 36.296875 -35.066406 37.953125 -33.171875 C 39.617188 -31.273438 40.867188 -29.132812 41.703125 -26.75 C 42.535156 -24.363281 42.953125 -21.914062 42.953125 -19.40625 C 42.953125 -16.90625 42.535156 -14.460938 41.703125 -12.078125 C 40.867188 -9.691406 39.617188 -7.550781 37.953125 -5.65625 C 36.296875 -3.757812 34.210938 -2.25 31.703125 -1.125 C 29.191406 -0.0078125 26.28125 0.546875 22.96875 0.546875 Z M 22.96875 -7.46875 C 25.164062 -7.46875 27.054688 -7.898438 28.640625 -8.765625 C 30.234375 -9.640625 31.5 -10.785156 32.4375 -12.203125 C 33.375 -13.628906 34.003906 -15.191406 34.328125 -16.890625 C 34.660156 -18.585938 34.660156 -20.285156 34.328125 -21.984375 C 34.003906 -23.679688 33.375 -25.242188 32.4375 -26.671875 C 31.5 -28.097656 30.234375 -29.242188 28.640625 -30.109375 C 27.054688 -30.972656 25.164062 -31.40625 22.96875 -31.40625 C 20.757812 -31.40625 18.859375 -30.972656 17.265625 -30.109375 C 15.679688 -29.242188 14.421875 -28.097656 13.484375 -26.671875 C 12.546875 -25.242188 11.914062 -23.679688 11.59375 -21.984375 C 11.269531 -20.285156 11.269531 -18.585938 11.59375 -16.890625 C 11.914062 -15.191406 12.546875 -13.628906 13.484375 -12.203125 C 14.421875 -10.785156 15.679688 -9.640625 17.265625 -8.765625 C 18.859375 -7.898438 20.757812 -7.46875 22.96875 -7.46875 Z M 22.96875 -7.46875 "/></g></g></g></svg>